<?xml version="1.0" encoding="UTF-8"?> <svg xmlns="http://www.w3.org/2000/svg" width="870" height="599" viewBox="0 0 870 599" fill="none"><path d="M348.519 136.716L368.519 144.716C369.003 144.908 369.507 145 370.003 145C371.587 145 373.091 144.048 373.719 142.484C374.539 140.432 373.539 138.104 371.487 137.284L359.411 132.456C373.975 125.336 398.599 117 422.003 117C445.407 117 470.031 125.336 484.595 132.456L472.519 137.284C470.467 138.108 469.467 140.432 470.287 142.484C470.915 144.048 472.419 145 474.003 145C474.499 145 475.003 144.908 475.487 144.712L495.487 136.712C497.539 135.888 498.539 133.564 497.719 131.512L489.719 111.512C488.899 109.46 486.547 108.476 484.519 109.284C482.467 110.108 481.467 112.432 482.287 114.484L486.235 124.348C470.507 116.936 445.939 109 422.003 109C398.067 109 373.499 116.936 357.771 124.348L361.719 114.484C362.539 112.432 361.539 110.104 359.487 109.284C357.451 108.472 355.107 109.46 354.287 111.512L346.287 131.512C345.467 133.568 346.467 135.892 348.519 136.716Z" fill="black"></path><path d="M465.667 357.333H458.548C458.262 353.602 457.282 349.957 455.659 346.586L461.831 343.021C462.558 342.607 463.009 341.835 463.011 340.997C463.012 340.16 462.566 339.386 461.839 338.969C461.113 338.552 460.22 338.556 459.497 338.979L453.342 342.535C451.221 339.451 448.552 336.781 445.467 334.66L449.021 328.503C449.444 327.78 449.448 326.886 449.031 326.16C448.614 325.434 447.84 324.987 447.003 324.989C446.165 324.991 445.393 325.441 444.979 326.169L441.414 332.341C438.043 330.716 434.398 329.737 430.667 329.452V322.333C430.667 321.045 429.622 320 428.333 320C427.045 320 426 321.045 426 322.333V329.452C422.269 329.737 418.624 330.716 415.253 332.341L411.687 326.169C411.273 325.441 410.501 324.991 409.664 324.989C408.827 324.987 408.053 325.434 407.635 326.16C407.218 326.886 407.222 327.78 407.646 328.503L411.2 334.66C408.115 336.781 405.446 339.451 403.325 342.535L397.169 338.979C396.447 338.556 395.553 338.552 394.827 338.969C394.101 339.386 393.654 340.16 393.656 340.997C393.658 341.835 394.108 342.607 394.836 343.021L401.008 346.586C399.384 349.957 398.404 353.602 398.119 357.333H391C389.711 357.333 388.667 358.378 388.667 359.667C388.667 360.955 389.711 362 391 362H398.119C398.404 365.731 399.384 369.376 401.008 372.747L394.836 376.313C394.108 376.727 393.658 377.499 393.656 378.336C393.654 379.173 394.101 379.947 394.827 380.364C395.553 380.781 396.447 380.778 397.169 380.354L403.325 376.798C405.446 379.883 408.115 382.552 411.2 384.673L407.646 390.831C407.222 391.553 407.218 392.447 407.635 393.173C408.053 393.899 408.827 394.346 409.664 394.344C410.501 394.342 411.273 393.892 411.687 393.164L415.253 386.992C418.624 388.617 422.269 389.597 426 389.881V397C426 398.289 427.045 399.333 428.333 399.333C429.622 399.333 430.667 398.289 430.667 397V389.881C434.398 389.597 438.043 388.617 441.414 386.992L444.979 393.164C445.393 393.892 446.165 394.342 447.003 394.344C447.84 394.346 448.614 393.899 449.031 393.173C449.448 392.447 449.444 391.553 449.021 390.831L445.467 384.673C448.552 382.552 451.221 379.883 453.342 376.798L459.497 380.354C460.22 380.778 461.113 380.781 461.839 380.364C462.566 379.947 463.012 379.173 463.011 378.336C463.009 377.499 462.558 376.727 461.831 376.313L455.659 372.747C457.282 369.376 458.262 365.731 458.548 362H465.667C466.955 362 468 360.955 468 359.667C468 358.378 466.955 357.333 465.667 357.333ZM428.333 385.333C414.158 385.333 402.667 373.842 402.667 359.667C402.667 345.491 414.158 334 428.333 334C442.509 334 454 345.491 454 359.667C453.983 373.835 442.502 385.317 428.333 385.333Z" fill="black"></path><path d="M419 345.667C415.134 345.667 412 348.801 412 352.667C412 356.533 415.134 359.667 419 359.667C422.866 359.667 426 356.533 426 352.667C426 348.801 422.866 345.667 419 345.667ZM419 355C417.711 355 416.667 353.956 416.667 352.667C416.667 351.378 417.711 350.334 419 350.334C420.289 350.334 421.333 351.378 421.333 352.667C421.333 353.956 420.289 355 419 355Z" fill="black"></path><path d="M437.667 357.333C432.512 357.333 428.333 361.511 428.333 366.666C428.333 371.821 432.512 375.999 437.667 375.999C442.822 375.999 447 371.821 447 366.666C447 361.511 442.822 357.333 437.667 357.333ZM437.667 371.333C435.09 371.333 433 369.243 433 366.666C433 364.089 435.09 361.999 437.667 361.999C440.244 361.999 442.334 364.089 442.334 366.666C442.334 369.243 440.244 371.333 437.667 371.333Z" fill="black"></path><path d="M433 348.001C434.289 348.001 435.334 346.956 435.334 345.667C435.334 344.379 434.289 343.334 433 343.334C431.712 343.334 430.667 344.379 430.667 345.667C430.667 346.956 431.712 348.001 433 348.001Z" fill="black"></path><path d="M419 371.333C420.289 371.333 421.333 370.288 421.333 368.999C421.333 367.711 420.289 366.666 419 366.666C417.711 366.666 416.667 367.711 416.667 368.999C416.667 370.288 417.711 371.333 419 371.333Z" fill="black"></path><path d="M496 213.333H488.881C488.596 209.602 487.616 205.957 485.992 202.586L492.164 199.021C492.892 198.607 493.342 197.835 493.344 196.997C493.346 196.16 492.899 195.386 492.173 194.969C491.447 194.552 490.553 194.556 489.831 194.979L483.675 198.535C481.554 195.451 478.885 192.781 475.8 190.66L479.354 184.503C479.778 183.78 479.781 182.886 479.364 182.16C478.947 181.434 478.173 180.987 477.336 180.989C476.499 180.991 475.727 181.441 475.313 182.169L471.747 188.341C468.376 186.716 464.731 185.737 461 185.452V178.333C461 177.045 459.955 176 458.667 176C457.378 176 456.333 177.045 456.333 178.333V185.452C452.602 185.737 448.957 186.716 445.586 188.341L442.021 182.169C441.607 181.441 440.835 180.991 439.997 180.989C439.16 180.987 438.386 181.434 437.969 182.16C437.552 182.886 437.556 183.78 437.979 184.503L441.533 190.66C438.448 192.781 435.779 195.451 433.658 198.535L427.503 194.979C426.78 194.556 425.886 194.552 425.16 194.969C424.434 195.386 423.987 196.16 423.989 196.997C423.991 197.835 424.441 198.607 425.169 199.021L431.341 202.586C429.718 205.957 428.738 209.602 428.452 213.333H421.333C420.045 213.333 419 214.378 419 215.667C419 216.955 420.045 218 421.333 218H428.452C428.738 221.731 429.718 225.376 431.341 228.747L425.169 232.313C424.441 232.727 423.991 233.499 423.989 234.336C423.987 235.173 424.434 235.947 425.16 236.364C425.886 236.781 426.78 236.778 427.503 236.354L433.658 232.798C435.779 235.883 438.448 238.552 441.533 240.673L437.979 246.831C437.556 247.553 437.552 248.447 437.969 249.173C438.386 249.899 439.16 250.346 439.997 250.344C440.835 250.342 441.607 249.892 442.021 249.164L445.586 242.992C448.957 244.617 452.602 245.597 456.333 245.881V253C456.333 254.289 457.378 255.333 458.667 255.333C459.955 255.333 461 254.289 461 253V245.881C464.731 245.597 468.376 244.617 471.747 242.992L475.313 249.164C475.727 249.892 476.499 250.342 477.336 250.344C478.173 250.346 478.947 249.899 479.364 249.173C479.781 248.447 479.778 247.553 479.354 246.831L475.8 240.673C478.885 238.552 481.554 235.883 483.675 232.798L489.831 236.354C490.553 236.778 491.447 236.781 492.173 236.364C492.899 235.947 493.346 235.173 493.344 234.336C493.342 233.499 492.892 232.727 492.164 232.313L485.992 228.747C487.616 225.376 488.596 221.731 488.881 218H496C497.289 218 498.333 216.955 498.333 215.667C498.333 214.378 497.289 213.333 496 213.333ZM458.667 241.333C444.491 241.333 433 229.842 433 215.667C433 201.491 444.491 190 458.667 190C472.842 190 484.333 201.491 484.333 215.667C484.317 229.835 472.835 241.317 458.667 241.333Z" fill="black"></path><path d="M449.334 201.664C445.468 201.664 442.333 204.798 442.333 208.664C442.333 212.53 445.468 215.664 449.334 215.664C453.199 215.664 456.334 212.53 456.334 208.664C456.334 204.798 453.199 201.664 449.334 201.664ZM449.334 210.997C448.045 210.997 447 209.953 447 208.664C447 207.375 448.045 206.331 449.334 206.331C450.622 206.331 451.667 207.375 451.667 208.664C451.667 209.953 450.622 210.997 449.334 210.997Z" fill="black"></path><path d="M468 213.336C462.846 213.336 458.667 217.515 458.667 222.669C458.667 227.824 462.846 232.003 468 232.003C473.155 232.003 477.334 227.824 477.334 222.669C477.334 217.515 473.155 213.336 468 213.336ZM468 227.336C465.423 227.336 463.334 225.247 463.334 222.669C463.334 220.092 465.423 218.003 468 218.003C470.578 218.003 472.667 220.092 472.667 222.669C472.667 225.247 470.578 227.336 468 227.336Z" fill="black"></path><path d="M463.333 204.003C464.622 204.003 465.667 202.958 465.667 201.669C465.667 200.381 464.622 199.336 463.333 199.336C462.045 199.336 461 200.381 461 201.669C461 202.958 462.045 204.003 463.333 204.003Z" fill="black"></path><path d="M449.333 227.331C450.622 227.331 451.667 226.286 451.667 224.997C451.667 223.709 450.622 222.664 449.333 222.664C448.045 222.664 447 223.709 447 224.997C447 226.286 448.045 227.331 449.333 227.331Z" fill="black"></path><path d="M330.333 408.666H337.452C337.738 412.397 338.718 416.042 340.341 419.413L334.169 422.979C333.441 423.393 332.991 424.165 332.989 425.002C332.987 425.839 333.434 426.613 334.16 427.03C334.886 427.447 335.78 427.444 336.503 427.02L342.658 423.464C344.779 426.549 347.448 429.218 350.533 431.339L346.979 437.497C346.556 438.219 346.552 439.113 346.969 439.839C347.386 440.565 348.16 441.012 348.997 441.01C349.835 441.008 350.607 440.558 351.021 439.83L354.586 433.658C357.957 435.283 361.602 436.263 365.333 436.547V443.666C365.333 444.955 366.378 445.999 367.667 445.999C368.955 445.999 370 444.955 370 443.666V436.547C373.731 436.263 377.376 435.283 380.747 433.658L384.313 439.83C384.727 440.558 385.499 441.008 386.336 441.01C387.173 441.012 387.947 440.565 388.364 439.839C388.781 439.113 388.778 438.219 388.354 437.497L384.8 431.339C387.885 429.218 390.554 426.549 392.675 423.464L398.831 427.02C399.553 427.444 400.447 427.447 401.173 427.03C401.899 426.613 402.346 425.839 402.344 425.002C402.342 424.165 401.892 423.393 401.164 422.979L394.992 419.413C396.616 416.042 397.596 412.397 397.881 408.666H405C406.289 408.666 407.333 407.621 407.333 406.333C407.333 405.044 406.289 403.999 405 403.999H397.881C397.596 400.268 396.616 396.623 394.992 393.252L401.164 389.687C401.892 389.273 402.342 388.501 402.344 387.663C402.346 386.826 401.899 386.052 401.173 385.635C400.447 385.218 399.553 385.222 398.831 385.645L392.675 389.201C390.554 386.117 387.885 383.447 384.8 381.326L388.354 375.169C388.778 374.446 388.781 373.552 388.364 372.826C387.947 372.1 387.173 371.653 386.336 371.655C385.499 371.657 384.727 372.107 384.313 372.835L380.747 379.007C377.376 377.382 373.731 376.403 370 376.118V368.999C370 367.711 368.955 366.666 367.667 366.666C366.378 366.666 365.333 367.711 365.333 368.999V376.118C361.602 376.403 357.957 377.382 354.586 379.007L351.021 372.835C350.607 372.107 349.835 371.657 348.997 371.655C348.16 371.653 347.386 372.1 346.969 372.826C346.552 373.552 346.556 374.446 346.979 375.169L350.533 381.326C347.448 383.447 344.779 386.117 342.658 389.201L336.503 385.645C335.78 385.222 334.886 385.218 334.16 385.635C333.434 386.052 332.987 386.826 332.989 387.663C332.991 388.501 333.441 389.273 334.169 389.687L340.341 393.252C338.718 396.623 337.738 400.268 337.452 403.999H330.333C329.045 403.999 328 405.044 328 406.333C328 407.621 329.045 408.666 330.333 408.666ZM367.667 380.666C381.842 380.666 393.333 392.157 393.333 406.333C393.333 420.508 381.842 431.999 367.667 431.999C353.491 431.999 342 420.508 342 406.333C342.017 392.164 353.498 380.683 367.667 380.666Z" fill="black"></path><path d="M358.334 406.333C362.199 406.333 365.334 403.199 365.334 399.333C365.334 395.467 362.199 392.333 358.334 392.333C354.468 392.333 351.333 395.467 351.333 399.333C351.333 403.199 354.468 406.333 358.334 406.333ZM358.334 396.999C359.622 396.999 360.667 398.044 360.667 399.333C360.667 400.621 359.622 401.666 358.334 401.666C357.045 401.666 356 400.621 356 399.333C356 398.044 357.045 396.999 358.334 396.999Z" fill="black"></path><path d="M377 422.668C382.155 422.668 386.333 418.489 386.333 413.334C386.333 408.18 382.155 404.001 377 404.001C371.845 404.001 367.667 408.18 367.667 413.334C367.667 418.489 371.845 422.668 377 422.668ZM377 408.668C379.577 408.668 381.667 410.757 381.667 413.334C381.667 415.912 379.577 418.001 377 418.001C374.423 418.001 372.333 415.912 372.333 413.334C372.333 410.757 374.423 408.668 377 408.668Z" fill="black"></path><path d="M372.333 394.667C373.622 394.667 374.667 393.622 374.667 392.333C374.667 391.045 373.622 390 372.333 390C371.045 390 370 391.045 370 392.333C370 393.622 371.045 394.667 372.333 394.667Z" fill="black"></path><path d="M358.333 418.001C359.622 418.001 360.667 416.956 360.667 415.667C360.667 414.379 359.622 413.334 358.333 413.334C357.045 413.334 356 414.379 356 415.667C356 416.956 357.045 418.001 358.333 418.001Z" fill="black"></path><path d="M465.667 432C466.956 432 468 430.955 468 429.667C468 428.378 466.956 427.333 465.667 427.333H460.881C460.626 424.832 459.964 422.388 458.921 420.1L463.084 417.697C464.19 417.048 464.566 415.628 463.925 414.517C463.283 413.406 461.866 413.021 460.751 413.655L456.579 416.063C455.107 414.026 453.318 412.237 451.28 410.767L453.688 406.595C454.321 405.48 453.937 404.062 452.826 403.421C451.715 402.779 450.295 403.155 449.646 404.261L447.234 408.412C444.945 407.37 442.502 406.708 440 406.452V401.667C440 400.378 438.956 399.333 437.667 399.333C436.378 399.333 435.334 400.378 435.334 401.667V406.452C432.832 406.708 430.389 407.37 428.1 408.412L425.697 404.25C425.283 403.522 424.511 403.071 423.674 403.07C422.836 403.068 422.062 403.515 421.645 404.241C421.228 404.967 421.232 405.861 421.656 406.583L424.054 410.767C422.021 412.236 420.236 414.021 418.767 416.054L414.595 413.646C413.48 413.012 412.062 413.397 411.421 414.508C410.78 415.618 411.155 417.039 412.262 417.687L416.424 420.091C415.381 422.379 414.719 424.822 414.464 427.324H409.667C408.378 427.324 407.333 428.369 407.333 429.657C407.333 430.946 408.378 431.991 409.667 431.991H414.453C414.708 434.492 415.37 436.936 416.413 439.224L412.25 441.627C411.522 442.041 411.072 442.813 411.07 443.651C411.068 444.488 411.515 445.262 412.241 445.679C412.967 446.096 413.861 446.092 414.583 445.669L418.767 443.279C420.238 445.318 422.027 447.107 424.066 448.578L421.658 452.75C421.234 453.473 421.23 454.367 421.647 455.093C422.064 455.819 422.839 456.266 423.676 456.264C424.513 456.262 425.285 455.812 425.699 455.084L428.103 450.921C430.391 451.964 432.834 452.626 435.336 452.881V457.667C435.336 458.955 436.381 460 437.669 460C438.958 460 440.003 458.955 440.003 457.667V452.881C442.504 452.626 444.948 451.964 447.236 450.921L449.639 455.084C450.288 456.19 451.708 456.566 452.819 455.924C453.93 455.283 454.314 453.865 453.681 452.75L451.273 448.578C453.311 447.107 455.1 445.318 456.572 443.279L460.744 445.687C461.098 445.893 461.501 446.001 461.91 446C462.966 446 463.891 445.291 464.164 444.271C464.437 443.251 463.991 442.174 463.077 441.646L458.921 439.233C459.964 436.945 460.626 434.502 460.881 432H465.667ZM437.667 448.333C427.358 448.333 419 439.976 419 429.667C419 419.357 427.358 411 437.667 411C447.976 411 456.334 419.357 456.334 429.667C456.322 439.971 447.971 448.322 437.667 448.333Z" fill="black"></path><path d="M440 422.666C441.289 422.666 442.334 421.622 442.334 420.333C442.334 419.044 441.289 418 440 418C438.712 418 437.667 419.044 437.667 420.333C437.667 421.622 438.712 422.666 440 422.666Z" fill="black"></path><path d="M428.333 424.999C429.622 424.999 430.667 423.954 430.667 422.666C430.667 421.377 429.622 420.332 428.333 420.332C427.045 420.332 426 421.377 426 422.666C426 423.954 427.045 424.999 428.333 424.999Z" fill="black"></path><path d="M447 436.667C448.289 436.667 449.334 435.623 449.334 434.334C449.334 433.045 448.289 432.001 447 432.001C445.712 432.001 444.667 433.045 444.667 434.334C444.667 435.623 445.712 436.667 447 436.667Z" fill="black"></path><path d="M430.667 439C431.955 439 433 437.955 433 436.667C433 435.378 431.955 434.333 430.667 434.333C429.378 434.333 428.333 435.378 428.333 436.667C428.333 437.955 429.378 439 430.667 439Z" fill="black"></path><path d="M301.58 426.132C299.219 422.714 294.535 421.857 291.116 424.216C287.698 426.576 286.84 431.262 289.2 434.68C304.614 457.003 312.762 483.2 312.762 510.438V537.237H255.948V501.791C255.948 497.637 252.581 494.269 248.426 494.269C244.271 494.269 240.904 497.636 240.904 501.791V544.758V582.957H102.724L152.713 494.148C156.167 494.933 159.892 495.394 163.901 495.394C186.465 495.394 200.228 481.004 205.471 474.207C226.546 471.917 234.863 452.186 235.227 451.296C235.597 450.392 235.787 449.424 235.787 448.448C235.787 425.777 234.561 405.538 232.126 387.819C245.744 393.679 258.217 401.736 269.316 411.884C272.373 414.681 277.133 414.48 279.942 411.408C282.745 408.342 282.533 403.585 279.466 400.782C264.743 387.319 247.848 377.152 229.197 370.509C229.014 369.611 228.825 368.726 228.634 367.845C244.903 354.514 256.585 336.482 262.277 316.537C265.697 317.56 269.263 318.094 272.88 318.094C293.303 318.094 309.918 301.479 309.918 281.056C309.918 273.064 307.366 265.662 303.045 259.604C321.594 213.556 321.679 168.76 303.137 136.122C291.729 116.043 274.263 103.05 255.218 100.476C235.205 97.7728 219.565 102.262 211.318 105.582C209.178 103.093 206.114 100.198 201.828 97.4188C189.099 89.1638 171.424 85.3518 149.298 86.0898C125.026 86.8988 106.454 99.6748 94.595 109.214C91.359 111.817 90.846 116.553 93.449 119.789C96.052 123.025 100.787 123.539 104.024 120.935C120.201 107.921 134.747 101.627 149.799 101.125C191.242 99.7548 201.151 116.798 201.826 118.066C203.331 122.305 208.791 124.004 212.551 121.575C212.714 121.48 229.147 112.135 253.203 115.383C267.556 117.322 280.988 127.589 290.057 143.552C297.59 156.812 312.058 192.74 291.098 248.826C285.714 245.771 279.5 244.016 272.88 244.016C270.635 244.016 268.399 244.229 266.202 244.632V243.4C266.202 232.941 261.865 222.942 254.305 215.967C237.136 200.128 217.699 172.208 210.139 160.939C205.909 154.262 195.649 153.538 190.471 159.496C151.492 202.067 100.093 215.881 79.803 219.844C69.257 221.906 61.602 231.211 61.602 241.97V244.63C59.404 244.227 57.169 244.014 54.924 244.014C50.881 244.014 46.991 244.674 43.346 245.877C36.576 234.818 21.373 206.049 19.755 168.507C26.564 169.203 36.123 169.414 45.192 166.968C58.331 163.426 70.481 151.843 82.231 140.641C85.238 137.774 85.351 133.014 82.485 130.007C79.619 127.001 74.858 126.888 71.851 129.752C61.463 139.655 50.721 149.896 41.276 152.443C28.78 155.813 13.989 152.419 13.853 152.388C9.34 151.193 4.541 154.923 4.59 159.594C3.921 205.084 21.873 239.733 30.287 253.425C22.684 260.213 17.886 270.079 17.886 281.049C17.886 301.472 34.502 318.087 54.925 318.087C58.542 318.087 62.107 317.552 65.528 316.53C71.219 336.476 82.901 354.508 99.17 367.839C98.979 368.724 98.789 369.613 98.605 370.515C70.754 380.438 46.765 398.225 29.037 422.196C10.041 447.882 0 478.394 0 510.432V590.473C0 594.628 3.368 597.995 7.522 597.995H320.287C324.442 597.995 327.809 594.628 327.809 590.473V510.432C327.806 480.132 318.737 450.979 301.58 426.132ZM208.031 458.258L200.961 394.601C200.503 390.473 196.783 387.5 192.655 387.956C188.527 388.414 185.552 392.133 186.01 396.262L193.638 464.942C190.198 469.482 180.255 480.35 163.902 480.35C147.531 480.35 137.584 469.457 134.165 464.944L141.794 396.262C142.253 392.133 139.278 388.414 135.149 387.956C131.018 387.504 127.301 390.473 126.843 394.601L119.772 458.258C112.459 455.695 108.45 449.379 107.062 446.753C107.194 398.298 113.023 362.088 124.391 339.105C133.908 319.865 146.832 310.512 163.902 310.512C180.972 310.512 193.895 319.865 203.413 339.105C214.781 362.086 220.609 398.297 220.742 446.747C219.334 449.408 215.324 455.701 208.031 458.258ZM272.88 259.06C285.008 259.06 294.875 268.927 294.875 281.055C294.875 293.183 285.008 303.05 272.88 303.05C270.29 303.05 267.743 302.594 265.342 301.717C265.904 297.405 266.201 293.042 266.201 288.649V260.1C268.351 259.417 270.607 259.06 272.88 259.06ZM54.924 303.05C42.796 303.05 32.929 293.183 32.929 281.055C32.929 268.927 42.796 259.06 54.924 259.06C57.197 259.06 59.453 259.417 61.602 260.1V288.648C61.602 293.041 61.899 297.404 62.461 301.716C60.06 302.594 57.513 303.05 54.924 303.05ZM76.645 288.648V241.972C76.645 238.39 79.187 235.294 82.688 234.61C104.072 230.433 157.713 216.023 199.425 171.955C208.261 184.948 227.011 211.256 244.103 227.025C248.587 231.161 251.158 237.129 251.158 243.401V288.648C251.158 312.392 241.308 335.167 224.382 351.511C222.197 344.476 219.702 338.11 216.895 332.435C208.554 315.572 192.588 295.469 163.901 295.469C135.213 295.469 119.248 315.572 110.906 332.435C108.099 338.109 105.605 344.475 103.419 351.51C86.495 335.167 76.645 312.392 76.645 288.648ZM41.13 431.146C55.347 411.922 74.043 397.132 95.676 387.827C94.366 397.361 93.41 407.632 92.803 418.612L57.041 484.275C55.054 487.923 56.401 492.491 60.049 494.478C61.192 495.1 62.425 495.395 63.64 495.395C66.305 495.395 68.888 493.975 70.252 491.47L92.401 450.802C92.456 450.968 92.509 451.135 92.576 451.297C92.94 452.186 101.257 471.918 122.332 474.208C125.195 477.92 130.607 483.895 138.6 488.556L85.463 582.958H20.426L55.897 517.829C57.884 514.181 56.537 509.613 52.889 507.626C49.24 505.64 44.672 506.987 42.686 510.635L15.042 561.393V510.439C15.041 481.643 24.062 454.224 41.13 431.146ZM312.763 582.957H255.949V552.28H312.763V582.957Z" fill="black"></path><path d="M115.022 283.176L134.408 272.264C136.818 270.907 138.289 268.338 138.239 265.572C138.189 262.807 136.625 260.292 134.167 259.025L114.781 249.024C111.091 247.119 106.553 248.569 104.648 252.26C102.743 255.951 104.192 260.489 107.884 262.393L114.872 265.998L107.643 270.067C104.023 272.105 102.74 276.691 104.778 280.311C106.159 282.764 108.711 284.144 111.339 284.144C112.589 284.144 113.855 283.833 115.022 283.176Z" fill="black"></path><path d="M193.396 272.264L212.782 283.176C213.949 283.832 215.215 284.144 216.465 284.144C219.093 284.144 221.645 282.764 223.027 280.311C225.064 276.691 223.781 272.105 220.161 270.067L212.932 265.998L219.92 262.393C223.612 260.488 225.061 255.952 223.156 252.26C221.25 248.567 216.713 247.121 213.023 249.024L193.637 259.025C191.179 260.293 189.616 262.807 189.565 265.572C189.514 268.338 190.985 270.907 193.396 272.264Z" fill="black"></path><path d="M726.055 458.394C722.092 455.559 717.485 453.762 712.653 453.168C707.821 452.574 702.917 453.2 698.389 454.992L698.602 454.778L692.149 448.308C694.01 445.212 695.003 441.668 695.02 438.053C695.004 433.562 693.503 429.203 690.754 425.658C688.005 422.113 684.162 419.581 679.825 418.458V402.5H669.695V418.458C666.838 419.178 664.175 420.518 661.892 422.384C659.61 424.251 657.764 426.598 656.487 429.259C655.21 431.92 654.532 434.83 654.501 437.783C654.47 440.736 655.087 443.66 656.308 446.347L647.104 453.732C643.06 452.778 638.859 452.7 634.783 453.504C630.706 454.308 626.848 455.975 623.465 458.394C615.789 463.896 609.354 470.955 604.578 479.114C599.802 487.273 596.792 496.349 595.744 505.751C594.354 518.431 595.951 531.26 600.404 543.209L605.428 556.658C606.134 558.549 607.302 560.233 608.827 561.552C610.351 562.872 612.182 563.786 614.151 564.21C614.995 564.393 615.855 564.487 616.719 564.49C618.297 564.487 619.86 564.171 621.317 563.561C622.774 562.951 624.096 562.058 625.208 560.935L629.903 556.231C633.541 552.567 637.867 549.662 642.631 547.685C647.396 545.707 652.504 544.697 657.66 544.712C660.851 544.709 663.911 543.437 666.167 541.175C668.423 538.912 669.692 535.844 669.695 532.644V482.24C669.672 477.585 668.549 473.001 666.419 468.865C664.288 464.729 661.21 461.158 657.437 458.445L662.669 454.25C665.831 456.691 669.654 458.114 673.638 458.334C677.621 458.553 681.578 457.558 684.986 455.479L689.783 460.289C686.673 463.036 684.178 466.413 682.461 470.196C680.745 473.979 679.847 478.084 679.825 482.24V532.634C679.825 535.836 681.093 538.906 683.349 541.171C685.606 543.436 688.667 544.709 691.86 544.712C697.016 544.699 702.124 545.711 706.887 547.69C711.651 549.669 715.976 552.576 719.612 556.242L724.307 560.945C725.419 562.069 726.741 562.961 728.198 563.571C729.655 564.181 731.217 564.497 732.796 564.5C733.66 564.497 734.52 564.404 735.364 564.221C737.334 563.796 739.165 562.882 740.69 561.561C742.214 560.24 743.382 558.556 744.086 556.663L749.111 543.224C753.564 531.274 755.16 518.442 753.771 505.761C752.725 496.358 749.716 487.28 744.941 479.119C740.166 470.959 733.731 463.897 726.055 458.394ZM659.565 483.764H645.565L639.304 480.625V473.606H629.174V483.764C629.169 484.712 629.428 485.643 629.923 486.451C630.418 487.259 631.129 487.911 631.975 488.335L634.295 489.498L627.654 493.922H619.044V504.08H629.174C630.174 504.079 631.152 503.782 631.985 503.227L645.889 493.922H659.565V495.862L642.105 504.613C641.398 504.974 640.786 505.496 640.317 506.137L625.841 525.493L616.779 530.034L621.308 539.125L631.438 534.046C632.145 533.686 632.757 533.164 633.226 532.523L638.402 525.595L645.853 533.066L653.015 525.884L644.546 517.387L647.702 513.166L659.565 507.219V532.644C659.563 533.151 659.362 533.635 659.005 533.993C658.648 534.351 658.165 534.553 657.66 534.554C651.173 534.536 644.746 535.809 638.752 538.298C632.759 540.787 627.316 544.443 622.741 549.055L618.051 553.763C617.826 553.989 617.548 554.154 617.242 554.243C616.937 554.332 616.614 554.342 616.303 554.271C615.99 554.208 615.699 554.065 615.458 553.856C615.216 553.647 615.033 553.379 614.926 553.077L609.896 539.633C606.005 529.179 604.617 517.954 605.844 506.863C606.731 498.88 609.285 491.173 613.338 484.244C617.392 477.315 622.855 471.32 629.371 466.648C632.228 464.608 635.59 463.397 639.088 463.146C642.586 462.894 646.086 463.613 649.204 465.223C652.322 466.833 654.938 469.273 656.765 472.274C658.593 475.276 659.561 478.724 659.565 482.24V483.764ZM664.63 438.053C664.63 436.044 665.224 434.08 666.337 432.41C667.45 430.739 669.032 429.437 670.883 428.668C672.734 427.899 674.771 427.698 676.736 428.09C678.701 428.482 680.506 429.45 681.923 430.87C683.34 432.291 684.305 434.101 684.696 436.071C685.086 438.042 684.886 440.084 684.119 441.94C683.352 443.796 682.054 445.383 680.388 446.499C678.722 447.615 676.764 448.211 674.76 448.211C672.073 448.211 669.497 447.141 667.597 445.236C665.697 443.331 664.63 440.747 664.63 438.053ZM739.624 539.633L734.594 553.067C734.488 553.369 734.305 553.639 734.063 553.849C733.822 554.059 733.53 554.203 733.217 554.266C732.906 554.336 732.583 554.327 732.277 554.238C731.972 554.149 731.694 553.984 731.469 553.758L726.779 549.05C722.203 544.439 716.761 540.784 710.767 538.295C704.773 535.807 698.347 534.536 691.86 534.554C691.355 534.553 690.871 534.351 690.515 533.993C690.158 533.635 689.957 533.151 689.955 532.644V507.219L701.818 513.166L704.973 517.387L696.505 525.884L703.667 533.066L711.117 525.595L716.294 532.523C716.763 533.164 717.375 533.686 718.082 534.046L728.212 539.125L732.74 530.034L723.679 525.493L709.203 506.112C708.734 505.471 708.122 504.949 707.415 504.588L689.955 495.862V493.922H703.631L717.55 503.227C718.379 503.779 719.351 504.076 720.346 504.08H730.476V493.922H721.866L715.21 489.473L717.53 488.31C718.375 487.89 719.086 487.242 719.583 486.439C720.081 485.636 720.345 484.71 720.346 483.764V473.606H710.216V480.625L703.955 483.764H689.955V482.24C689.954 478.72 690.921 475.267 692.749 472.261C694.577 469.255 697.196 466.812 700.318 465.201C703.44 463.59 706.944 462.872 710.446 463.128C713.948 463.383 717.312 464.601 720.169 466.648C726.687 471.321 732.15 477.318 736.204 484.249C740.258 491.179 742.81 498.888 743.696 506.874C744.914 517.963 743.519 529.183 739.624 539.633Z" fill="black"></path><path d="M839.434 366.806C832.685 333.001 800.973 327.247 800.873 327.201V327.202C800.532 327.102 803.782 327.917 723.532 308.025V305.302H782.607C794.784 305.302 804.69 295.395 804.69 283.219V170.553C805.683 166.364 805.685 162.009 804.69 157.811V116.692C804.69 112.548 801.331 109.191 797.189 109.191C793.045 109.191 789.688 112.548 789.688 116.692V138.219C785.728 135.855 781.205 134.16 776.331 133.321C774.571 125.504 768.079 119.324 759.846 118.243C751.264 117.115 744.76 112.112 740.515 103.374C738.528 99.2833 734.636 96.5963 730.106 96.1843C725.572 95.7743 721.279 97.7113 718.592 101.369C705.698 118.917 669.853 158.276 607.956 158.274C603.247 158.274 600.054 158.051 598.942 158.001C587.568 157.316 577.951 166.404 577.951 177.801V195.036C577.951 222.583 589.379 249.289 609.303 268.305C615.911 274.612 623.2 279.873 630.973 284.068V290.302H572.168C568.263 290.302 565.086 287.125 565.086 283.221V114.671C565.086 60.0283 609.639 15.0023 663.457 15.0023C663.631 15.0023 663.805 15.0033 663.978 15.0043C683.26 15.1073 705.523 20.5843 720.694 28.9533C730.309 34.2603 736.248 30.0423 745.743 30.0423C768.918 30.0423 787.49 53.8723 789.716 75.3053C789.73 75.6193 789.763 76.8763 789.767 81.6923C789.772 88.9333 797.95 89.4893 797.274 89.1873C801.418 89.1843 804.772 85.8223 804.769 81.6803C804.768 80.3483 804.779 75.1253 804.654 73.9133C801.638 44.0763 776.187 15.0403 745.744 15.0403C733.854 15.0403 732.001 18.0543 727.942 15.8183C710.739 6.32733 685.663 0.118332 664.059 0.00233224C601.787 -0.400668 550.083 51.4763 550.083 114.67V283.22C550.083 295.397 559.99 305.303 572.167 305.303H630.973V308.026L553.935 327.119C553.833 327.144 553.733 327.173 553.632 327.202L548.004 328.862C547.835 328.912 547.669 328.967 547.504 329.028C537.46 332.776 519.891 342.667 515.07 366.81C492.24 481.492 493.201 476.595 493.146 476.988C490.396 496.439 477.271 597 500.694 597H612.172C612.172 597 616.194 589 612.172 585.5C610.194 583.778 603.085 582.5 598.942 582.5H576.444L573.194 537C573.194 532.856 572.837 529 568.694 529C564.551 529 563.194 532.857 563.194 537L561.442 582.5L504.194 585.5C494.23 585.5 507.806 493.788 507.71 483.321C507.668 478.215 507.467 483.192 529.783 369.743C533.142 352.92 545.358 345.893 552.515 343.172L557.717 341.638L601.957 330.673C651.17 388.649 648.256 385.577 651.1 388.351C667.526 404.374 690.964 403.243 706.39 385.127L752.715 330.714L796.786 341.637C798.061 342.223 819.999 346.082 824.722 369.74C846.846 482.207 846.838 478.191 846.796 483.315C846.72 493.567 857.02 582.5 846.796 582.5H789.688V537C789.688 532.856 786.752 529 782.608 529C778.464 529 776.331 537.857 776.331 542V582.5H651.1C646.956 582.5 640.281 581.357 640.281 585.5C640.281 589.644 639.664 597 643.807 597H846.796C865.328 597 869.086 603.866 869.257 585.5C869.32 576.923 861.351 478.956 839.434 366.806ZM776.822 148.796C783.086 150.659 787.917 154.787 789.689 159.885V168.479C787.917 173.578 783.086 177.706 776.822 179.568V148.796ZM776.822 196.342V194.957C781.51 194.091 785.863 192.431 789.689 190.146V283.22C789.689 287.125 786.512 290.3 782.608 290.3H723.532V284.503C755.336 267.876 776.822 234.585 776.822 196.342ZM619.662 257.451C602.689 241.25 592.955 218.501 592.955 195.034C593.401 178.702 591.874 176.723 594.48 174.269C595.403 173.399 596.644 172.894 598.041 172.974C651.825 176.212 698.085 152.568 728.627 112.98C736.862 127.44 748.939 131.942 757.893 133.119C760.131 133.413 761.82 135.323 761.82 137.564C761.82 158.315 761.82 175.741 761.82 196.343C761.82 270.979 672.468 307.85 619.662 257.451ZM694.965 375.401C684.514 387.678 669.884 387.645 659.458 375.339L643.807 356.866H710.745L694.965 375.401ZM723.519 341.863H631.098L618.207 326.647L640.281 321.175C643.629 320.346 645.977 317.268 645.977 313.82L645.978 290.614C666.618 297.494 688.415 297.419 708.53 290.828C708.671 314.803 708.208 314.254 708.948 316.369C709.766 318.707 711.715 320.552 714.225 321.174L736.444 326.681L723.519 341.863Z" fill="black"></path><path d="M664 250C673.334 255.333 682.666 255.333 692 250" stroke="black" stroke-width="15" stroke-miterlimit="10" stroke-linecap="round" stroke-linejoin="round"></path><path d="M708.048 211H723.666" stroke="black" stroke-width="15" stroke-miterlimit="10" stroke-linecap="round" stroke-linejoin="round"></path><path d="M631.033 211H646.651" stroke="black" stroke-width="15" stroke-miterlimit="10" stroke-linecap="round" stroke-linejoin="round"></path><path d="M625 185C636 183 642.5 183 653 185" stroke="black" stroke-width="15" stroke-miterlimit="10" stroke-linecap="round" stroke-linejoin="round"></path><path d="M702 184.5C713 182.5 719.5 182.5 730 184.5" stroke="black" stroke-width="15" stroke-miterlimit="10" stroke-linecap="round" stroke-linejoin="round"></path></svg> 