<?xml version="1.0" encoding="UTF-8"?> <svg xmlns="http://www.w3.org/2000/svg" width="742" height="599" viewBox="0 0 742 599" fill="none"><path d="M301.58 426.132C299.219 422.714 294.535 421.857 291.116 424.216C287.698 426.576 286.84 431.262 289.2 434.68C304.614 457.003 312.762 483.2 312.762 510.438V537.237H255.948V501.791C255.948 497.637 252.581 494.269 248.426 494.269C244.271 494.269 240.904 497.636 240.904 501.791V544.758V582.957H102.724L152.713 494.148C156.167 494.933 159.892 495.394 163.901 495.394C186.465 495.394 200.228 481.004 205.471 474.207C226.546 471.917 234.863 452.186 235.227 451.296C235.597 450.392 235.787 449.424 235.787 448.448C235.787 425.777 234.561 405.538 232.126 387.819C245.744 393.679 258.217 401.736 269.316 411.884C272.373 414.681 277.133 414.48 279.942 411.408C282.745 408.342 282.533 403.585 279.466 400.782C264.743 387.319 247.848 377.152 229.197 370.509C229.014 369.611 228.825 368.726 228.634 367.845C244.903 354.514 256.585 336.482 262.277 316.537C265.697 317.56 269.263 318.094 272.88 318.094C293.303 318.094 309.918 301.479 309.918 281.056C309.918 273.064 307.366 265.662 303.045 259.604C321.594 213.556 321.679 168.76 303.137 136.122C291.729 116.043 274.263 103.05 255.218 100.476C235.205 97.7728 219.565 102.262 211.318 105.582C209.178 103.093 206.114 100.198 201.828 97.4188C189.099 89.1638 171.424 85.3518 149.298 86.0898C125.026 86.8988 106.454 99.6748 94.595 109.214C91.359 111.817 90.846 116.553 93.449 119.789C96.052 123.025 100.787 123.539 104.024 120.935C120.201 107.921 134.747 101.627 149.799 101.125C191.242 99.7548 201.151 116.798 201.826 118.066C203.331 122.305 208.791 124.004 212.551 121.575C212.714 121.48 229.147 112.135 253.203 115.383C267.556 117.322 280.988 127.589 290.057 143.552C297.59 156.812 312.058 192.74 291.098 248.826C285.714 245.771 279.5 244.016 272.88 244.016C270.635 244.016 268.399 244.229 266.202 244.632V243.4C266.202 232.941 261.865 222.942 254.305 215.967C237.136 200.128 217.699 172.208 210.139 160.939C205.909 154.262 195.649 153.538 190.471 159.496C151.492 202.067 100.093 215.881 79.803 219.844C69.257 221.906 61.602 231.211 61.602 241.97V244.63C59.404 244.227 57.169 244.014 54.924 244.014C50.881 244.014 46.991 244.674 43.346 245.877C36.576 234.818 21.373 206.049 19.755 168.507C26.564 169.203 36.123 169.414 45.192 166.968C58.331 163.426 70.481 151.843 82.231 140.641C85.238 137.774 85.351 133.014 82.485 130.007C79.619 127.001 74.858 126.888 71.851 129.752C61.463 139.655 50.721 149.896 41.276 152.443C28.78 155.813 13.989 152.419 13.853 152.388C9.34 151.193 4.541 154.923 4.59 159.594C3.921 205.084 21.873 239.733 30.287 253.425C22.684 260.213 17.886 270.079 17.886 281.049C17.886 301.472 34.502 318.087 54.925 318.087C58.542 318.087 62.107 317.552 65.528 316.53C71.219 336.476 82.901 354.508 99.17 367.839C98.979 368.724 98.789 369.613 98.605 370.515C70.754 380.438 46.765 398.225 29.037 422.196C10.041 447.882 0 478.394 0 510.432V590.473C0 594.628 3.368 597.995 7.522 597.995H320.287C324.442 597.995 327.809 594.628 327.809 590.473V510.432C327.806 480.132 318.737 450.979 301.58 426.132ZM208.031 458.258L200.961 394.601C200.503 390.473 196.783 387.5 192.655 387.956C188.527 388.414 185.552 392.133 186.01 396.262L193.638 464.942C190.198 469.482 180.255 480.35 163.902 480.35C147.531 480.35 137.584 469.457 134.165 464.944L141.794 396.262C142.253 392.133 139.278 388.414 135.149 387.956C131.018 387.504 127.301 390.473 126.843 394.601L119.772 458.258C112.459 455.695 108.45 449.379 107.062 446.753C107.194 398.298 113.023 362.088 124.391 339.105C133.908 319.865 146.832 310.512 163.902 310.512C180.972 310.512 193.895 319.865 203.413 339.105C214.781 362.086 220.609 398.297 220.742 446.747C219.334 449.408 215.324 455.701 208.031 458.258ZM272.88 259.06C285.008 259.06 294.875 268.927 294.875 281.055C294.875 293.183 285.008 303.05 272.88 303.05C270.29 303.05 267.743 302.594 265.342 301.717C265.904 297.405 266.201 293.042 266.201 288.649V260.1C268.351 259.417 270.607 259.06 272.88 259.06ZM54.924 303.05C42.796 303.05 32.929 293.183 32.929 281.055C32.929 268.927 42.796 259.06 54.924 259.06C57.197 259.06 59.453 259.417 61.602 260.1V288.648C61.602 293.041 61.899 297.404 62.461 301.716C60.06 302.594 57.513 303.05 54.924 303.05ZM76.645 288.648V241.972C76.645 238.39 79.187 235.294 82.688 234.61C104.072 230.433 157.713 216.023 199.425 171.955C208.261 184.948 227.011 211.256 244.103 227.025C248.587 231.161 251.158 237.129 251.158 243.401V288.648C251.158 312.392 241.308 335.167 224.382 351.511C222.197 344.476 219.702 338.11 216.895 332.435C208.554 315.572 192.588 295.469 163.901 295.469C135.213 295.469 119.248 315.572 110.906 332.435C108.099 338.109 105.605 344.475 103.419 351.51C86.495 335.167 76.645 312.392 76.645 288.648ZM41.13 431.146C55.347 411.922 74.043 397.132 95.676 387.827C94.366 397.361 93.41 407.632 92.803 418.612L57.041 484.275C55.054 487.923 56.401 492.491 60.049 494.478C61.192 495.1 62.425 495.395 63.64 495.395C66.305 495.395 68.888 493.975 70.252 491.47L92.401 450.802C92.456 450.968 92.509 451.135 92.576 451.297C92.94 452.186 101.257 471.918 122.332 474.208C125.195 477.92 130.607 483.895 138.6 488.556L85.463 582.958H20.426L55.897 517.829C57.884 514.181 56.537 509.613 52.889 507.626C49.24 505.64 44.672 506.987 42.686 510.635L15.042 561.393V510.439C15.041 481.643 24.062 454.224 41.13 431.146ZM312.763 582.957H255.949V552.28H312.763V582.957Z" fill="black"></path><path d="M115.022 283.176L134.408 272.264C136.818 270.907 138.289 268.338 138.239 265.572C138.189 262.807 136.625 260.292 134.167 259.025L114.781 249.024C111.091 247.119 106.553 248.569 104.648 252.26C102.743 255.951 104.192 260.489 107.884 262.393L114.872 265.998L107.643 270.067C104.023 272.105 102.74 276.691 104.778 280.311C106.159 282.764 108.711 284.144 111.339 284.144C112.589 284.144 113.855 283.833 115.022 283.176Z" fill="black"></path><path d="M193.396 272.264L212.782 283.176C213.949 283.832 215.215 284.144 216.465 284.144C219.093 284.144 221.645 282.764 223.027 280.311C225.064 276.691 223.781 272.105 220.161 270.067L212.932 265.998L219.92 262.393C223.612 260.488 225.061 255.952 223.156 252.26C221.25 248.567 216.713 247.121 213.023 249.024L193.637 259.025C191.179 260.293 189.616 262.807 189.565 265.572C189.514 268.338 190.985 270.907 193.396 272.264Z" fill="black"></path><path d="M598.055 458.394C594.092 455.559 589.485 453.762 584.653 453.168C579.821 452.574 574.917 453.2 570.389 454.992L570.602 454.778L564.149 448.308C566.01 445.212 567.003 441.668 567.02 438.053C567.004 433.562 565.503 429.203 562.754 425.658C560.005 422.113 556.162 419.581 551.825 418.458V402.5H541.695V418.458C538.838 419.178 536.175 420.518 533.892 422.384C531.61 424.251 529.764 426.598 528.487 429.259C527.21 431.92 526.532 434.83 526.501 437.783C526.47 440.736 527.087 443.66 528.308 446.347L519.104 453.732C515.06 452.778 510.859 452.7 506.783 453.504C502.706 454.308 498.848 455.975 495.465 458.394C487.789 463.896 481.354 470.955 476.578 479.114C471.802 487.273 468.792 496.349 467.744 505.751C466.354 518.431 467.951 531.26 472.404 543.209L477.428 556.658C478.134 558.549 479.302 560.233 480.827 561.552C482.351 562.872 484.182 563.786 486.151 564.21C486.995 564.393 487.855 564.487 488.719 564.49C490.297 564.487 491.86 564.171 493.317 563.561C494.774 562.951 496.096 562.058 497.208 560.935L501.903 556.231C505.541 552.567 509.867 549.662 514.631 547.685C519.396 545.707 524.504 544.697 529.66 544.712C532.851 544.709 535.911 543.437 538.167 541.175C540.423 538.912 541.692 535.844 541.695 532.644V482.24C541.672 477.585 540.549 473.001 538.419 468.865C536.288 464.729 533.21 461.158 529.437 458.445L534.669 454.25C537.831 456.691 541.654 458.114 545.638 458.334C549.621 458.553 553.578 457.558 556.986 455.479L561.783 460.289C558.673 463.036 556.178 466.413 554.461 470.196C552.745 473.979 551.847 478.084 551.825 482.24V532.634C551.825 535.836 553.093 538.906 555.349 541.171C557.606 543.436 560.667 544.709 563.86 544.712C569.016 544.699 574.124 545.711 578.887 547.69C583.651 549.669 587.976 552.576 591.612 556.242L596.307 560.945C597.419 562.069 598.741 562.961 600.198 563.571C601.655 564.181 603.217 564.497 604.796 564.5C605.66 564.497 606.52 564.404 607.364 564.221C609.334 563.796 611.165 562.882 612.69 561.561C614.214 560.24 615.382 558.556 616.086 556.663L621.111 543.224C625.564 531.274 627.16 518.442 625.771 505.761C624.725 496.358 621.716 487.28 616.941 479.119C612.166 470.959 605.731 463.897 598.055 458.394ZM531.565 483.764H517.565L511.304 480.625V473.606H501.174V483.764C501.169 484.712 501.428 485.643 501.923 486.451C502.418 487.259 503.129 487.911 503.975 488.335L506.295 489.498L499.654 493.922H491.044V504.08H501.174C502.174 504.079 503.152 503.782 503.985 503.227L517.889 493.922H531.565V495.862L514.105 504.613C513.398 504.974 512.786 505.496 512.317 506.137L497.841 525.493L488.779 530.034L493.308 539.125L503.438 534.046C504.145 533.686 504.757 533.164 505.226 532.523L510.402 525.595L517.853 533.066L525.015 525.884L516.546 517.387L519.702 513.166L531.565 507.219V532.644C531.563 533.151 531.362 533.635 531.005 533.993C530.648 534.351 530.165 534.553 529.66 534.554C523.173 534.536 516.746 535.809 510.752 538.298C504.759 540.787 499.316 544.443 494.741 549.055L490.051 553.763C489.826 553.989 489.548 554.154 489.242 554.243C488.937 554.332 488.614 554.342 488.303 554.271C487.99 554.208 487.699 554.065 487.458 553.856C487.216 553.647 487.033 553.379 486.926 553.077L481.896 539.633C478.005 529.179 476.617 517.954 477.844 506.863C478.731 498.88 481.285 491.173 485.338 484.244C489.392 477.315 494.855 471.32 501.371 466.648C504.228 464.608 507.59 463.397 511.088 463.146C514.586 462.894 518.086 463.613 521.204 465.223C524.322 466.833 526.938 469.273 528.765 472.274C530.593 475.276 531.561 478.724 531.565 482.24V483.764ZM536.63 438.053C536.63 436.044 537.224 434.08 538.337 432.41C539.45 430.739 541.032 429.437 542.883 428.668C544.734 427.899 546.771 427.698 548.736 428.09C550.701 428.482 552.506 429.45 553.923 430.87C555.34 432.291 556.305 434.101 556.696 436.071C557.086 438.042 556.886 440.084 556.119 441.94C555.352 443.796 554.054 445.383 552.388 446.499C550.722 447.615 548.764 448.211 546.76 448.211C544.073 448.211 541.497 447.141 539.597 445.236C537.697 443.331 536.63 440.747 536.63 438.053ZM611.624 539.633L606.594 553.067C606.488 553.369 606.305 553.639 606.063 553.849C605.822 554.059 605.53 554.203 605.217 554.266C604.906 554.336 604.583 554.327 604.277 554.238C603.972 554.149 603.694 553.984 603.469 553.758L598.779 549.05C594.203 544.439 588.761 540.784 582.767 538.295C576.773 535.807 570.347 534.536 563.86 534.554C563.355 534.553 562.871 534.351 562.515 533.993C562.158 533.635 561.957 533.151 561.955 532.644V507.219L573.818 513.166L576.973 517.387L568.505 525.884L575.667 533.066L583.117 525.595L588.294 532.523C588.763 533.164 589.375 533.686 590.082 534.046L600.212 539.125L604.74 530.034L595.679 525.493L581.203 506.112C580.734 505.471 580.122 504.949 579.415 504.588L561.955 495.862V493.922H575.631L589.55 503.227C590.379 503.779 591.351 504.076 592.346 504.08H602.476V493.922H593.866L587.21 489.473L589.53 488.31C590.375 487.89 591.086 487.242 591.583 486.439C592.081 485.636 592.345 484.71 592.346 483.764V473.606H582.216V480.625L575.955 483.764H561.955V482.24C561.954 478.72 562.921 475.267 564.749 472.261C566.577 469.255 569.196 466.812 572.318 465.201C575.44 463.59 578.944 462.872 582.446 463.128C585.948 463.383 589.312 464.601 592.169 466.648C598.687 471.321 604.15 477.318 608.204 484.249C612.258 491.179 614.81 498.888 615.696 506.874C616.914 517.963 615.519 529.183 611.624 539.633Z" fill="black"></path><path d="M711.434 366.806C704.685 333.001 672.973 327.247 672.873 327.201V327.202C672.532 327.102 675.782 327.917 595.532 308.025V305.302H654.607C666.784 305.302 676.69 295.395 676.69 283.219V170.553C677.683 166.364 677.685 162.009 676.69 157.811V116.692C676.69 112.548 673.331 109.191 669.189 109.191C665.045 109.191 661.688 112.548 661.688 116.692V138.219C657.728 135.855 653.205 134.16 648.331 133.321C646.571 125.504 640.079 119.324 631.846 118.243C623.264 117.115 616.76 112.112 612.515 103.374C610.528 99.2833 606.636 96.5963 602.106 96.1843C597.572 95.7743 593.279 97.7113 590.592 101.369C577.698 118.917 541.853 158.276 479.956 158.274C475.247 158.274 472.054 158.051 470.942 158.001C459.568 157.316 449.951 166.404 449.951 177.801V195.036C449.951 222.583 461.379 249.289 481.303 268.305C487.911 274.612 495.2 279.873 502.973 284.068V290.302H444.168C440.263 290.302 437.086 287.125 437.086 283.221V114.671C437.086 60.0283 481.639 15.0023 535.457 15.0023C535.631 15.0023 535.805 15.0033 535.978 15.0043C555.26 15.1073 577.523 20.5843 592.694 28.9533C602.309 34.2603 608.248 30.0423 617.743 30.0423C640.918 30.0423 659.49 53.8723 661.716 75.3053C661.73 75.6193 661.763 76.8763 661.767 81.6923C661.772 88.9333 669.95 89.4893 669.274 89.1873C673.418 89.1843 676.772 85.8223 676.769 81.6803C676.768 80.3483 676.779 75.1253 676.654 73.9133C673.638 44.0763 648.187 15.0403 617.744 15.0403C605.854 15.0403 604.001 18.0543 599.942 15.8183C582.739 6.32733 557.663 0.118332 536.059 0.00233224C473.787 -0.400668 422.083 51.4763 422.083 114.67V283.22C422.083 295.397 431.99 305.303 444.167 305.303H502.973V308.026L425.935 327.119C425.833 327.144 425.733 327.173 425.632 327.202L420.004 328.862C419.835 328.912 419.669 328.967 419.504 329.028C409.46 332.776 391.891 342.667 387.07 366.81C364.24 481.492 365.201 476.595 365.146 476.988C362.396 496.439 349.271 597 372.694 597H484.172C484.172 597 488.194 589 484.172 585.5C482.194 583.778 475.085 582.5 470.942 582.5H448.444L445.194 537C445.194 532.856 444.837 529 440.694 529C436.551 529 435.194 532.857 435.194 537L433.442 582.5L376.194 585.5C366.23 585.5 379.806 493.788 379.71 483.321C379.668 478.215 379.467 483.192 401.783 369.743C405.142 352.92 417.358 345.893 424.515 343.172L429.717 341.638L473.957 330.673C523.17 388.649 520.256 385.577 523.1 388.351C539.526 404.374 562.964 403.243 578.39 385.127L624.715 330.714L668.786 341.637C670.061 342.223 691.999 346.082 696.722 369.74C718.846 482.207 718.838 478.191 718.796 483.315C718.72 493.567 729.02 582.5 718.796 582.5H661.688V537C661.688 532.856 658.752 529 654.608 529C650.464 529 648.331 537.857 648.331 542V582.5H523.1C518.956 582.5 512.281 581.357 512.281 585.5C512.281 589.644 511.664 597 515.807 597H718.796C737.328 597 741.086 603.866 741.257 585.5C741.32 576.923 733.351 478.956 711.434 366.806ZM648.822 148.796C655.086 150.659 659.917 154.787 661.689 159.885V168.479C659.917 173.578 655.086 177.706 648.822 179.568V148.796ZM648.822 196.342V194.957C653.51 194.091 657.863 192.431 661.689 190.146V283.22C661.689 287.125 658.512 290.3 654.608 290.3H595.532V284.503C627.336 267.876 648.822 234.585 648.822 196.342ZM491.662 257.451C474.689 241.25 464.955 218.501 464.955 195.034C465.401 178.702 463.874 176.723 466.48 174.269C467.403 173.399 468.644 172.894 470.041 172.974C523.825 176.212 570.085 152.568 600.627 112.98C608.862 127.44 620.939 131.942 629.893 133.119C632.131 133.413 633.82 135.323 633.82 137.564C633.82 158.315 633.82 175.741 633.82 196.343C633.82 270.979 544.468 307.85 491.662 257.451ZM566.965 375.401C556.514 387.678 541.884 387.645 531.458 375.339L515.807 356.866H582.745L566.965 375.401ZM595.519 341.863H503.098L490.207 326.647L512.281 321.175C515.629 320.346 517.977 317.268 517.977 313.82L517.978 290.614C538.618 297.494 560.415 297.419 580.53 290.828C580.671 314.803 580.208 314.254 580.948 316.369C581.766 318.707 583.715 320.552 586.225 321.174L608.444 326.681L595.519 341.863Z" fill="black"></path><path d="M536 250C545.334 255.333 554.666 255.333 564 250" stroke="black" stroke-width="15" stroke-miterlimit="10" stroke-linecap="round" stroke-linejoin="round"></path><path d="M580.048 211H595.666" stroke="black" stroke-width="15" stroke-miterlimit="10" stroke-linecap="round" stroke-linejoin="round"></path><path d="M503.033 211H518.651" stroke="black" stroke-width="15" stroke-miterlimit="10" stroke-linecap="round" stroke-linejoin="round"></path><path d="M497 185C508 183 514.5 183 525 185" stroke="black" stroke-width="15" stroke-miterlimit="10" stroke-linecap="round" stroke-linejoin="round"></path><path d="M574 184.5C585 182.5 591.5 182.5 602 184.5" stroke="black" stroke-width="15" stroke-miterlimit="10" stroke-linecap="round" stroke-linejoin="round"></path></svg> 