<?xml version="1.0" encoding="UTF-8"?> <svg xmlns="http://www.w3.org/2000/svg" width="383" height="599" viewBox="0 0 383 599" fill="none"><path d="M239.055 458.394C235.092 455.559 230.485 453.762 225.653 453.168C220.821 452.574 215.917 453.2 211.389 454.992L211.602 454.778L205.149 448.308C207.01 445.212 208.003 441.668 208.02 438.053C208.004 433.562 206.503 429.203 203.754 425.658C201.005 422.113 197.162 419.581 192.825 418.458V402.5H182.695V418.458C179.838 419.178 177.175 420.518 174.892 422.384C172.61 424.251 170.764 426.598 169.487 429.259C168.21 431.92 167.532 434.83 167.501 437.783C167.47 440.736 168.087 443.66 169.308 446.347L160.104 453.732C156.06 452.778 151.859 452.7 147.783 453.504C143.706 454.308 139.848 455.975 136.465 458.394C128.789 463.896 122.354 470.955 117.578 479.114C112.802 487.273 109.792 496.349 108.744 505.751C107.354 518.431 108.951 531.26 113.404 543.209L118.428 556.658C119.134 558.549 120.302 560.233 121.827 561.552C123.351 562.872 125.182 563.786 127.151 564.21C127.995 564.393 128.855 564.487 129.719 564.49C131.297 564.487 132.86 564.171 134.317 563.561C135.774 562.951 137.096 562.058 138.208 560.935L142.903 556.231C146.541 552.567 150.867 549.662 155.631 547.685C160.396 545.707 165.504 544.697 170.66 544.712C173.851 544.709 176.911 543.437 179.167 541.175C181.423 538.912 182.692 535.844 182.695 532.644V482.24C182.672 477.585 181.549 473.001 179.419 468.865C177.288 464.729 174.21 461.158 170.437 458.445L175.669 454.25C178.831 456.691 182.654 458.114 186.638 458.334C190.621 458.553 194.578 457.558 197.986 455.479L202.783 460.289C199.673 463.036 197.178 466.413 195.461 470.196C193.745 473.979 192.847 478.084 192.825 482.24V532.634C192.825 535.836 194.093 538.906 196.349 541.171C198.606 543.436 201.667 544.709 204.86 544.712C210.016 544.699 215.124 545.711 219.887 547.69C224.651 549.669 228.976 552.576 232.612 556.242L237.307 560.945C238.419 562.069 239.741 562.961 241.198 563.571C242.655 564.181 244.217 564.497 245.796 564.5C246.66 564.497 247.52 564.404 248.364 564.221C250.334 563.796 252.165 562.882 253.69 561.561C255.214 560.24 256.382 558.556 257.086 556.663L262.111 543.224C266.564 531.274 268.16 518.442 266.771 505.761C265.725 496.358 262.716 487.28 257.941 479.119C253.166 470.959 246.731 463.897 239.055 458.394ZM172.565 483.764H158.565L152.304 480.625V473.606H142.174V483.764C142.169 484.712 142.428 485.643 142.923 486.451C143.418 487.259 144.129 487.911 144.975 488.335L147.295 489.498L140.654 493.922H132.044V504.08H142.174C143.174 504.079 144.152 503.782 144.985 503.227L158.889 493.922H172.565V495.862L155.105 504.613C154.398 504.974 153.786 505.496 153.317 506.137L138.841 525.493L129.779 530.034L134.308 539.125L144.438 534.046C145.145 533.686 145.757 533.164 146.226 532.523L151.402 525.595L158.853 533.066L166.015 525.884L157.546 517.387L160.702 513.166L172.565 507.219V532.644C172.563 533.151 172.362 533.635 172.005 533.993C171.648 534.351 171.165 534.553 170.66 534.554C164.173 534.536 157.746 535.809 151.752 538.298C145.759 540.787 140.316 544.443 135.741 549.055L131.051 553.763C130.826 553.989 130.548 554.154 130.242 554.243C129.937 554.332 129.614 554.342 129.303 554.271C128.99 554.208 128.699 554.065 128.458 553.856C128.216 553.647 128.033 553.379 127.926 553.077L122.896 539.633C119.005 529.179 117.617 517.954 118.844 506.863C119.731 498.88 122.285 491.173 126.338 484.244C130.392 477.315 135.855 471.32 142.371 466.648C145.228 464.608 148.59 463.397 152.088 463.146C155.586 462.894 159.086 463.613 162.204 465.223C165.322 466.833 167.938 469.273 169.765 472.274C171.593 475.276 172.561 478.724 172.565 482.24V483.764ZM177.63 438.053C177.63 436.044 178.224 434.08 179.337 432.41C180.45 430.739 182.032 429.437 183.883 428.668C185.734 427.899 187.771 427.698 189.736 428.09C191.701 428.482 193.506 429.45 194.923 430.87C196.34 432.291 197.305 434.101 197.696 436.071C198.086 438.042 197.886 440.084 197.119 441.94C196.352 443.796 195.054 445.383 193.388 446.499C191.722 447.615 189.764 448.211 187.76 448.211C185.073 448.211 182.497 447.141 180.597 445.236C178.697 443.331 177.63 440.747 177.63 438.053ZM252.624 539.633L247.594 553.067C247.488 553.369 247.305 553.639 247.063 553.849C246.822 554.059 246.53 554.203 246.217 554.266C245.906 554.336 245.583 554.327 245.277 554.238C244.972 554.149 244.694 553.984 244.469 553.758L239.779 549.05C235.203 544.439 229.761 540.784 223.767 538.295C217.773 535.807 211.347 534.536 204.86 534.554C204.355 534.553 203.871 534.351 203.515 533.993C203.158 533.635 202.957 533.151 202.955 532.644V507.219L214.818 513.166L217.973 517.387L209.505 525.884L216.667 533.066L224.117 525.595L229.294 532.523C229.763 533.164 230.375 533.686 231.082 534.046L241.212 539.125L245.74 530.034L236.679 525.493L222.203 506.112C221.734 505.471 221.122 504.949 220.415 504.588L202.955 495.862V493.922H216.631L230.55 503.227C231.379 503.779 232.351 504.076 233.346 504.08H243.476V493.922H234.866L228.21 489.473L230.53 488.31C231.375 487.89 232.086 487.242 232.583 486.439C233.081 485.636 233.345 484.71 233.346 483.764V473.606H223.216V480.625L216.955 483.764H202.955V482.24C202.954 478.72 203.921 475.267 205.749 472.261C207.577 469.255 210.196 466.812 213.318 465.201C216.44 463.59 219.944 462.872 223.446 463.128C226.948 463.383 230.312 464.601 233.169 466.648C239.687 471.321 245.15 477.318 249.204 484.249C253.258 491.179 255.81 498.888 256.696 506.874C257.914 517.963 256.519 529.183 252.624 539.633Z" fill="black"></path><path d="M352.434 366.806C345.685 333.001 313.973 327.247 313.873 327.201V327.202C313.532 327.102 316.782 327.917 236.532 308.025V305.302H295.607C307.784 305.302 317.69 295.395 317.69 283.219V170.553C318.683 166.364 318.685 162.009 317.69 157.811V116.692C317.69 112.548 314.331 109.191 310.189 109.191C306.045 109.191 302.688 112.548 302.688 116.692V138.219C298.728 135.855 294.205 134.16 289.331 133.321C287.571 125.504 281.079 119.324 272.846 118.243C264.264 117.115 257.76 112.112 253.515 103.374C251.528 99.2833 247.636 96.5963 243.106 96.1843C238.572 95.7743 234.279 97.7113 231.592 101.369C218.698 118.917 182.853 158.276 120.956 158.274C116.247 158.274 113.054 158.051 111.942 158.001C100.568 157.316 90.9514 166.404 90.9514 177.801V195.036C90.9514 222.583 102.379 249.289 122.303 268.305C128.911 274.612 136.2 279.873 143.973 284.068V290.302H85.1684C81.2634 290.302 78.0864 287.125 78.0864 283.221V114.671C78.0864 60.0283 122.639 15.0023 176.457 15.0023C176.631 15.0023 176.805 15.0033 176.978 15.0043C196.26 15.1073 218.523 20.5843 233.694 28.9533C243.309 34.2603 249.248 30.0423 258.743 30.0423C281.918 30.0423 300.49 53.8723 302.716 75.3053C302.73 75.6193 302.763 76.8763 302.767 81.6923C302.772 88.9333 310.95 89.4893 310.274 89.1873C314.418 89.1843 317.772 85.8223 317.769 81.6803C317.768 80.3483 317.779 75.1253 317.654 73.9133C314.638 44.0763 289.187 15.0403 258.744 15.0403C246.854 15.0403 245.001 18.0543 240.942 15.8183C223.739 6.32733 198.663 0.118332 177.059 0.00233224C114.787 -0.400668 63.0834 51.4763 63.0834 114.67V283.22C63.0834 295.397 72.9904 305.303 85.1674 305.303H143.973V308.026L66.9354 327.119C66.8334 327.144 66.7334 327.173 66.6324 327.202L61.0044 328.862C60.8354 328.912 60.6694 328.967 60.5044 329.028C50.4604 332.776 32.8914 342.667 28.0704 366.81C5.2404 481.492 6.20139 476.595 6.14639 476.988C3.39639 496.439 -9.72921 597 13.6938 597H125.172C125.172 597 129.194 589 125.172 585.5C123.194 583.778 116.085 582.5 111.942 582.5H89.4444L86.1938 537C86.1938 532.856 85.8368 529 81.6938 529C77.5508 529 76.1938 532.857 76.1938 537L74.4424 582.5L17.1938 585.5C7.22979 585.5 20.8064 493.788 20.7104 483.321C20.6684 478.215 20.4674 483.192 42.7834 369.743C46.1424 352.92 58.3584 345.893 65.5154 343.172L70.7174 341.638L114.957 330.673C164.17 388.649 161.256 385.577 164.1 388.351C180.526 404.374 203.964 403.243 219.39 385.127L265.715 330.714L309.786 341.637C311.061 342.223 332.999 346.082 337.722 369.74C359.846 482.207 359.838 478.191 359.796 483.315C359.72 493.567 370.02 582.5 359.796 582.5H302.688V537C302.688 532.856 299.752 529 295.608 529C291.464 529 289.331 537.857 289.331 542V582.5H164.1C159.956 582.5 153.281 581.357 153.281 585.5C153.281 589.644 152.664 597 156.807 597H359.796C378.328 597 382.086 603.866 382.257 585.5C382.32 576.923 374.351 478.956 352.434 366.806ZM289.822 148.796C296.086 150.659 300.917 154.787 302.689 159.885V168.479C300.917 173.578 296.086 177.706 289.822 179.568V148.796ZM289.822 196.342V194.957C294.51 194.091 298.863 192.431 302.689 190.146V283.22C302.689 287.125 299.512 290.3 295.608 290.3H236.532V284.503C268.336 267.876 289.822 234.585 289.822 196.342ZM132.662 257.451C115.689 241.25 105.955 218.501 105.955 195.034C106.401 178.702 104.874 176.723 107.48 174.269C108.403 173.399 109.644 172.894 111.041 172.974C164.825 176.212 211.085 152.568 241.627 112.98C249.862 127.44 261.939 131.942 270.893 133.119C273.131 133.413 274.82 135.323 274.82 137.564C274.82 158.315 274.82 175.741 274.82 196.343C274.82 270.979 185.468 307.85 132.662 257.451ZM207.965 375.401C197.514 387.678 182.884 387.645 172.458 375.339L156.807 356.866H223.745L207.965 375.401ZM236.519 341.863H144.098L131.207 326.647L153.281 321.175C156.629 320.346 158.977 317.268 158.977 313.82L158.978 290.614C179.618 297.494 201.415 297.419 221.53 290.828C221.671 314.803 221.208 314.254 221.948 316.369C222.766 318.707 224.715 320.552 227.225 321.174L249.444 326.681L236.519 341.863Z" fill="black"></path><path d="M177 250C186.334 255.333 195.666 255.333 205 250" stroke="black" stroke-width="15" stroke-miterlimit="10" stroke-linecap="round" stroke-linejoin="round"></path><path d="M221.048 211H236.666" stroke="black" stroke-width="15" stroke-miterlimit="10" stroke-linecap="round" stroke-linejoin="round"></path><path d="M144.033 211H159.651" stroke="black" stroke-width="15" stroke-miterlimit="10" stroke-linecap="round" stroke-linejoin="round"></path><path d="M138 185C149 183 155.5 183 166 185" stroke="black" stroke-width="15" stroke-miterlimit="10" stroke-linecap="round" stroke-linejoin="round"></path><path d="M215 184.5C226 182.5 232.5 182.5 243 184.5" stroke="black" stroke-width="15" stroke-miterlimit="10" stroke-linecap="round" stroke-linejoin="round"></path></svg> 