<?xml version="1.0" encoding="UTF-8"?> <svg xmlns="http://www.w3.org/2000/svg" width="516" height="599" viewBox="0 0 516 599" fill="none"><path d="M377.667 251.333H384.786C385.071 247.602 386.051 243.957 387.674 240.586L381.503 237.021C380.775 236.607 380.324 235.835 380.323 234.997C380.321 234.16 380.768 233.386 381.494 232.969C382.22 232.552 383.114 232.556 383.836 232.979L389.991 236.535C392.112 233.451 394.782 230.781 397.866 228.66L394.313 222.503C393.889 221.78 393.885 220.886 394.302 220.16C394.719 219.434 395.493 218.987 396.331 218.989C397.168 218.991 397.94 219.441 398.354 220.169L401.919 226.341C405.29 224.716 408.935 223.737 412.667 223.452V216.333C412.667 215.045 413.711 214 415 214C416.289 214 417.333 215.045 417.333 216.333V223.452C421.065 223.737 424.71 224.716 428.081 226.341L431.646 220.169C432.06 219.441 432.832 218.991 433.669 218.989C434.507 218.987 435.281 219.434 435.698 220.16C436.115 220.886 436.111 221.78 435.687 222.503L432.134 228.66C435.218 230.781 437.888 233.451 440.009 236.535L446.164 232.979C446.886 232.556 447.78 232.552 448.506 232.969C449.232 233.386 449.679 234.16 449.677 234.997C449.676 235.835 449.225 236.607 448.497 237.021L442.326 240.586C443.949 243.957 444.929 247.602 445.214 251.333H452.333C453.622 251.333 454.667 252.378 454.667 253.667C454.667 254.955 453.622 256 452.333 256H445.214C444.929 259.731 443.949 263.376 442.326 266.747L448.497 270.313C449.225 270.727 449.676 271.499 449.677 272.336C449.679 273.173 449.232 273.947 448.506 274.364C447.78 274.781 446.886 274.778 446.164 274.354L440.009 270.798C437.888 273.883 435.218 276.552 432.134 278.673L435.687 284.831C436.111 285.553 436.115 286.447 435.698 287.173C435.281 287.899 434.507 288.346 433.669 288.344C432.832 288.342 432.06 287.892 431.646 287.164L428.081 280.992C424.71 282.617 421.065 283.597 417.333 283.881V291C417.333 292.289 416.289 293.333 415 293.333C413.711 293.333 412.667 292.289 412.667 291V283.881C408.935 283.597 405.29 282.617 401.919 280.992L398.354 287.164C397.94 287.892 397.168 288.342 396.331 288.344C395.493 288.346 394.719 287.899 394.302 287.173C393.885 286.447 393.889 285.553 394.313 284.831L397.866 278.673C394.782 276.552 392.112 273.883 389.991 270.798L383.836 274.354C383.114 274.778 382.22 274.781 381.494 274.364C380.768 273.947 380.321 273.173 380.323 272.336C380.324 271.499 380.775 270.727 381.503 270.313L387.674 266.747C386.051 263.376 385.071 259.731 384.786 256H377.667C376.378 256 375.333 254.955 375.333 253.667C375.333 252.378 376.378 251.333 377.667 251.333ZM415 279.333C429.175 279.333 440.667 267.842 440.667 253.667C440.667 239.491 429.175 228 415 228C400.825 228 389.333 239.491 389.333 253.667C389.35 267.835 400.832 279.317 415 279.333Z" fill="black"></path><path d="M424.333 239.667C428.199 239.667 431.333 242.801 431.333 246.667C431.333 250.533 428.199 253.667 424.333 253.667C420.467 253.667 417.333 250.533 417.333 246.667C417.333 242.801 420.467 239.667 424.333 239.667ZM424.333 249C425.622 249 426.667 247.956 426.667 246.667C426.667 245.378 425.622 244.334 424.333 244.334C423.045 244.334 422 245.378 422 246.667C422 247.956 423.045 249 424.333 249Z" fill="black"></path><path d="M405.667 251.333C410.821 251.333 415 255.511 415 260.666C415 265.821 410.821 269.999 405.667 269.999C400.512 269.999 396.333 265.821 396.333 260.666C396.333 255.511 400.512 251.333 405.667 251.333ZM405.667 265.333C408.244 265.333 410.333 263.243 410.333 260.666C410.333 258.089 408.244 255.999 405.667 255.999C403.089 255.999 401 258.089 401 260.666C401 263.243 403.089 265.333 405.667 265.333Z" fill="black"></path><path d="M410.333 242.001C409.045 242.001 408 240.956 408 239.667C408 238.379 409.045 237.334 410.333 237.334C411.622 237.334 412.667 238.379 412.667 239.667C412.667 240.956 411.622 242.001 410.333 242.001Z" fill="black"></path><path d="M424.333 265.333C423.045 265.333 422 264.288 422 262.999C422 261.711 423.045 260.666 424.333 260.666C425.622 260.666 426.667 261.711 426.667 262.999C426.667 264.288 425.622 265.333 424.333 265.333Z" fill="black"></path><path d="M347.333 107.333H354.452C354.738 103.602 355.718 99.9574 357.341 96.586L351.169 93.0207C350.442 92.6068 349.991 91.8347 349.989 90.9974C349.988 90.1601 350.434 89.386 351.161 88.969C351.887 88.5519 352.78 88.5559 353.503 88.9794L359.658 92.5354C361.779 89.4506 364.448 86.7814 367.533 84.6603L363.979 78.5027C363.556 77.7803 363.552 76.8865 363.969 76.1604C364.386 75.4344 365.16 74.9874 365.997 74.9893C366.835 74.9911 367.607 75.4415 368.021 76.1693L371.586 82.341C374.957 80.7165 378.602 79.7367 382.333 79.4523V72.3333C382.333 71.0447 383.378 70 384.667 70C385.955 70 387 71.0447 387 72.3333V79.4523C390.731 79.7367 394.376 80.7165 397.747 82.341L401.313 76.1693C401.727 75.4415 402.499 74.9911 403.336 74.9893C404.173 74.9874 404.947 75.4344 405.365 76.1604C405.782 76.8865 405.778 77.7803 405.354 78.5027L401.8 84.6603C404.885 86.7814 407.554 89.4506 409.675 92.5354L415.831 88.9794C416.553 88.5559 417.447 88.5519 418.173 88.969C418.899 89.386 419.346 90.1601 419.344 90.9974C419.342 91.8347 418.892 92.6068 418.164 93.0207L411.992 96.586C413.616 99.9574 414.596 103.602 414.881 107.333H422C423.289 107.333 424.333 108.378 424.333 109.667C424.333 110.955 423.289 112 422 112H414.881C414.596 115.731 413.616 119.376 411.992 122.747L418.164 126.313C418.892 126.727 419.342 127.499 419.344 128.336C419.346 129.173 418.899 129.947 418.173 130.364C417.447 130.781 416.553 130.778 415.831 130.354L409.675 126.798C407.554 129.883 404.885 132.552 401.8 134.673L405.354 140.831C405.778 141.553 405.782 142.447 405.365 143.173C404.947 143.899 404.173 144.346 403.336 144.344C402.499 144.342 401.727 143.892 401.313 143.164L397.747 136.992C394.376 138.617 390.731 139.597 387 139.881V147C387 148.289 385.955 149.333 384.667 149.333C383.378 149.333 382.333 148.289 382.333 147V139.881C378.602 139.597 374.957 138.617 371.586 136.992L368.021 143.164C367.607 143.892 366.835 144.342 365.997 144.344C365.16 144.346 364.386 143.899 363.969 143.173C363.552 142.447 363.556 141.553 363.979 140.831L367.533 134.673C364.448 132.552 361.779 129.883 359.658 126.798L353.503 130.354C352.78 130.778 351.887 130.781 351.161 130.364C350.434 129.947 349.988 129.173 349.989 128.336C349.991 127.499 350.442 126.727 351.169 126.313L357.341 122.747C355.718 119.376 354.738 115.731 354.452 112H347.333C346.045 112 345 110.955 345 109.667C345 108.378 346.045 107.333 347.333 107.333ZM384.667 135.333C398.842 135.333 410.333 123.842 410.333 109.667C410.333 95.4914 398.842 84 384.667 84C370.491 84 359 95.4914 359 109.667C359.017 123.835 370.498 135.317 384.667 135.333Z" fill="black"></path><path d="M394 95.6641C397.866 95.6641 401 98.7981 401 102.664C401 106.53 397.866 109.664 394 109.664C390.134 109.664 387 106.53 387 102.664C387 98.7981 390.134 95.6641 394 95.6641ZM394 104.997C395.289 104.997 396.333 103.953 396.333 102.664C396.333 101.375 395.289 100.331 394 100.331C392.711 100.331 391.667 101.375 391.667 102.664C391.667 103.953 392.711 104.997 394 104.997Z" fill="black"></path><path d="M375.333 107.336C380.488 107.336 384.667 111.515 384.667 116.669C384.667 121.824 380.488 126.003 375.333 126.003C370.179 126.003 366 121.824 366 116.669C366 111.515 370.179 107.336 375.333 107.336ZM375.333 121.336C377.911 121.336 380 119.247 380 116.669C380 114.092 377.911 112.003 375.333 112.003C372.756 112.003 370.667 114.092 370.667 116.669C370.667 119.247 372.756 121.336 375.333 121.336Z" fill="black"></path><path d="M380 98.0026C378.711 98.0026 377.667 96.9579 377.667 95.6693C377.667 94.3806 378.711 93.3359 380 93.3359C381.289 93.3359 382.333 94.3806 382.333 95.6693C382.333 96.9579 381.289 98.0026 380 98.0026Z" fill="black"></path><path d="M394 121.331C392.711 121.331 391.667 120.286 391.667 118.997C391.667 117.709 392.711 116.664 394 116.664C395.289 116.664 396.333 117.709 396.333 118.997C396.333 120.286 395.289 121.331 394 121.331Z" fill="black"></path><path d="M513 302.666H505.881C505.596 306.397 504.616 310.042 502.992 313.413L509.164 316.979C509.892 317.393 510.342 318.165 510.344 319.002C510.346 319.839 509.899 320.613 509.173 321.03C508.447 321.448 507.553 321.444 506.831 321.02L500.675 317.464C498.554 320.549 495.885 323.218 492.8 325.339L496.354 331.497C496.778 332.219 496.782 333.113 496.365 333.839C495.947 334.565 495.173 335.012 494.336 335.01C493.499 335.008 492.727 334.558 492.313 333.83L488.747 327.658C485.376 329.283 481.731 330.263 478 330.547V337.666C478 338.955 476.955 339.999 475.667 339.999C474.378 339.999 473.333 338.955 473.333 337.666V330.547C469.602 330.263 465.957 329.283 462.586 327.658L459.021 333.83C458.607 334.558 457.835 335.008 456.997 335.01C456.16 335.012 455.386 334.565 454.969 333.839C454.552 333.113 454.556 332.219 454.979 331.497L458.533 325.339C455.448 323.218 452.779 320.549 450.658 317.464L444.503 321.02C443.78 321.444 442.887 321.448 442.161 321.03C441.434 320.613 440.988 319.839 440.989 319.002C440.991 318.165 441.442 317.393 442.169 316.979L448.341 313.413C446.718 310.042 445.738 306.397 445.452 302.666H438.333C437.045 302.666 436 301.621 436 300.333C436 299.044 437.045 297.999 438.333 297.999H445.452C445.738 294.268 446.718 290.623 448.341 287.252L442.169 283.687C441.442 283.273 440.991 282.501 440.989 281.663C440.988 280.826 441.434 280.052 442.161 279.635C442.887 279.218 443.78 279.222 444.503 279.645L450.658 283.201C452.779 280.117 455.448 277.447 458.533 275.326L454.979 269.169C454.556 268.446 454.552 267.553 454.969 266.826C455.386 266.1 456.16 265.653 456.997 265.655C457.835 265.657 458.607 266.107 459.021 266.835L462.586 273.007C465.957 271.382 469.602 270.403 473.333 270.118V262.999C473.333 261.711 474.378 260.666 475.667 260.666C476.955 260.666 478 261.711 478 262.999V270.118C481.731 270.403 485.376 271.382 488.747 273.007L492.313 266.835C492.727 266.107 493.499 265.657 494.336 265.655C495.173 265.653 495.947 266.1 496.365 266.826C496.782 267.553 496.778 268.446 496.354 269.169L492.8 275.326C495.885 277.447 498.554 280.117 500.675 283.201L506.831 279.645C507.553 279.222 508.447 279.218 509.173 279.635C509.899 280.052 510.346 280.826 510.344 281.663C510.342 282.501 509.892 283.273 509.164 283.687L502.992 287.252C504.616 290.623 505.596 294.268 505.881 297.999H513C514.289 297.999 515.333 299.044 515.333 300.333C515.333 301.621 514.289 302.666 513 302.666ZM475.667 274.666C461.491 274.666 450 286.157 450 300.333C450 314.508 461.491 325.999 475.667 325.999C489.842 325.999 501.333 314.508 501.333 300.333C501.317 286.164 489.835 274.683 475.667 274.666Z" fill="black"></path><path d="M485 300.333C481.134 300.333 478 297.199 478 293.333C478 289.467 481.134 286.333 485 286.333C488.866 286.333 492 289.467 492 293.333C492 297.199 488.866 300.333 485 300.333ZM485 290.999C483.712 290.999 482.667 292.044 482.667 293.333C482.667 294.621 483.712 295.666 485 295.666C486.289 295.666 487.334 294.621 487.334 293.333C487.334 292.044 486.289 290.999 485 290.999Z" fill="black"></path><path d="M466.333 316.668C461.179 316.668 457 312.489 457 307.334C457 302.18 461.179 298.001 466.333 298.001C471.488 298.001 475.667 302.18 475.667 307.334C475.667 312.489 471.488 316.668 466.333 316.668ZM466.333 302.668C463.756 302.668 461.667 304.757 461.667 307.334C461.667 309.912 463.756 312.001 466.333 312.001C468.911 312.001 471 309.912 471 307.334C471 304.757 468.911 302.668 466.333 302.668Z" fill="black"></path><path d="M471 288.667C469.711 288.667 468.667 287.622 468.667 286.333C468.667 285.045 469.711 284 471 284C472.289 284 473.333 285.045 473.333 286.333C473.333 287.622 472.289 288.667 471 288.667Z" fill="black"></path><path d="M485 312.001C483.711 312.001 482.667 310.956 482.667 309.667C482.667 308.379 483.711 307.334 485 307.334C486.289 307.334 487.333 308.379 487.333 309.667C487.333 310.956 486.289 312.001 485 312.001Z" fill="black"></path><path d="M377.667 326C376.378 326 375.333 324.955 375.333 323.667C375.333 322.378 376.378 321.333 377.667 321.333H382.452C382.708 318.832 383.37 316.388 384.412 314.1L380.25 311.697C379.143 311.048 378.768 309.628 379.409 308.517C380.05 307.406 381.468 307.021 382.583 307.655L386.755 310.063C388.227 308.026 390.016 306.237 392.054 304.767L389.646 300.595C389.012 299.48 389.397 298.062 390.508 297.421C391.618 296.779 393.039 297.155 393.687 298.261L396.1 302.412C398.388 301.37 400.832 300.708 403.333 300.452V295.667C403.333 294.378 404.378 293.333 405.667 293.333C406.955 293.333 408 294.378 408 295.667V300.452C410.502 300.708 412.945 301.37 415.233 302.412L417.637 298.25C418.05 297.522 418.823 297.071 419.66 297.07C420.497 297.068 421.271 297.515 421.688 298.241C422.105 298.967 422.101 299.861 421.678 300.583L419.279 304.767C421.313 306.236 423.098 308.021 424.567 310.054L428.739 307.646C429.854 307.012 431.271 307.397 431.913 308.508C432.554 309.618 432.178 311.039 431.072 311.687L426.909 314.091C427.952 316.379 428.614 318.822 428.869 321.324H433.667C434.955 321.324 436 322.369 436 323.657C436 324.946 434.955 325.991 433.667 325.991H428.881C428.626 328.492 427.964 330.936 426.921 333.224L431.084 335.627C431.812 336.041 432.262 336.813 432.264 337.651C432.266 338.488 431.819 339.262 431.093 339.679C430.367 340.096 429.473 340.092 428.75 339.669L424.567 337.279C423.095 339.318 421.306 341.107 419.268 342.578L421.676 346.75C422.099 347.473 422.103 348.366 421.686 349.093C421.269 349.819 420.495 350.266 419.658 350.264C418.82 350.262 418.048 349.812 417.634 349.084L415.231 344.921C412.943 345.964 410.499 346.626 407.998 346.881V351.667C407.998 352.955 406.953 354 405.664 354C404.376 354 403.331 352.955 403.331 351.667V346.881C400.829 346.626 398.386 345.964 396.098 344.921L393.694 349.084C393.046 350.19 391.625 350.566 390.515 349.924C389.404 349.283 389.019 347.865 389.653 346.75L392.061 342.578C390.023 341.107 388.233 339.318 386.762 337.279L382.59 339.687C382.236 339.893 381.833 340.001 381.423 340C380.367 340 379.443 339.291 379.17 338.271C378.896 337.25 379.342 336.174 380.257 335.646L384.412 333.233C383.37 330.945 382.708 328.502 382.452 326H377.667ZM405.667 342.333C415.976 342.333 424.333 333.976 424.333 323.667C424.333 313.357 415.976 305 405.667 305C395.357 305 387 313.357 387 323.667C387.012 333.971 395.362 342.322 405.667 342.333Z" fill="black"></path><path d="M403.333 316.666C402.045 316.666 401 315.622 401 314.333C401 313.044 402.045 312 403.333 312C404.622 312 405.667 313.044 405.667 314.333C405.667 315.622 404.622 316.666 403.333 316.666Z" fill="black"></path><path d="M415 318.999C413.711 318.999 412.667 317.954 412.667 316.666C412.667 315.377 413.711 314.332 415 314.332C416.289 314.332 417.333 315.377 417.333 316.666C417.333 317.954 416.289 318.999 415 318.999Z" fill="black"></path><path d="M396.333 330.667C395.045 330.667 394 329.622 394 328.334C394 327.045 395.045 326 396.333 326C397.622 326 398.667 327.045 398.667 328.334C398.667 329.622 397.622 330.667 396.333 330.667Z" fill="black"></path><path d="M412.667 333C411.378 333 410.333 331.955 410.333 330.667C410.333 329.378 411.378 328.333 412.667 328.333C413.955 328.333 415 329.378 415 330.667C415 331.955 413.955 333 412.667 333Z" fill="black"></path><path d="M234.618 513.882H236.502C236.578 512.894 236.837 511.93 237.267 511.037L235.633 510.093C235.44 509.984 235.321 509.78 235.321 509.558C235.32 509.336 235.439 509.131 235.631 509.021C235.823 508.911 236.06 508.912 236.251 509.024L237.88 509.965C238.442 509.148 239.148 508.442 239.965 507.88L239.024 506.25C238.912 506.059 238.911 505.823 239.021 505.63C239.132 505.438 239.336 505.32 239.558 505.32C239.78 505.321 239.984 505.44 240.094 505.633L241.037 507.266C241.93 506.836 242.895 506.577 243.882 506.502V504.617C243.882 504.276 244.159 504 244.5 504C244.841 504 245.118 504.276 245.118 504.617V506.502C246.105 506.577 247.07 506.836 247.963 507.266L248.906 505.633C249.016 505.44 249.22 505.321 249.442 505.32C249.664 505.32 249.868 505.438 249.979 505.63C250.089 505.823 250.088 506.059 249.976 506.25L249.035 507.88C249.852 508.442 250.558 509.148 251.12 509.965L252.749 509.024C252.94 508.912 253.177 508.911 253.369 509.021C253.561 509.131 253.68 509.336 253.679 509.558C253.679 509.78 253.56 509.984 253.367 510.093L251.733 511.037C252.163 511.93 252.422 512.894 252.498 513.882H254.382C254.723 513.882 255 514.159 255 514.5C255 514.841 254.723 515.117 254.382 515.117H252.498C252.422 516.105 252.163 517.07 251.733 517.962L253.367 518.906C253.56 519.016 253.679 519.22 253.679 519.442C253.68 519.663 253.561 519.868 253.369 519.979C253.177 520.089 252.94 520.088 252.749 519.976L251.12 519.035C250.558 519.851 249.852 520.558 249.035 521.119L249.976 522.749C250.088 522.94 250.089 523.177 249.979 523.369C249.868 523.561 249.664 523.68 249.442 523.679C249.22 523.679 249.016 523.559 248.906 523.367L247.963 521.733C247.07 522.163 246.105 522.422 245.118 522.498V524.382C245.118 524.723 244.841 525 244.5 525C244.159 525 243.882 524.723 243.882 524.382V522.498C242.895 522.422 241.93 522.163 241.037 521.733L240.094 523.367C239.984 523.559 239.78 523.679 239.558 523.679C239.336 523.68 239.132 523.561 239.021 523.369C238.911 523.177 238.912 522.94 239.024 522.749L239.965 521.119C239.148 520.558 238.442 519.851 237.88 519.035L236.251 519.976C236.06 520.088 235.823 520.089 235.631 519.979C235.439 519.868 235.32 519.663 235.321 519.442C235.321 519.22 235.44 519.016 235.633 518.906L237.267 517.962C236.837 517.07 236.578 516.105 236.502 515.117H234.618C234.277 515.117 234 514.841 234 514.5C234 514.159 234.277 513.882 234.618 513.882ZM244.5 521.294C248.252 521.294 251.294 518.252 251.294 514.5C251.294 510.747 248.252 507.706 244.5 507.706C240.748 507.706 237.706 510.747 237.706 514.5C237.71 518.25 240.75 521.289 244.5 521.294Z" fill="black"></path><path d="M247 511C248.105 511 249 511.671 249 512.5C249 513.328 248.105 514 247 514C245.895 514 245 513.328 245 512.5C245 511.671 245.895 511 247 511ZM247 513C247.368 513 247.667 512.776 247.667 512.5C247.667 512.224 247.368 512 247 512C246.632 512 246.333 512.224 246.333 512.5C246.333 512.776 246.632 513 247 513Z" fill="black"></path><path d="M242.5 514C243.881 514 245 515.119 245 516.5C245 517.88 243.881 519 242.5 519C241.119 519 240 517.88 240 516.5C240 515.119 241.119 514 242.5 514ZM242.5 517.75C243.19 517.75 243.75 517.19 243.75 516.5C243.75 515.809 243.19 515.25 242.5 515.25C241.81 515.25 241.25 515.809 241.25 516.5C241.25 517.19 241.81 517.75 242.5 517.75Z" fill="black"></path><path d="M243.5 512C243.224 512 243 511.552 243 511C243 510.447 243.224 510 243.5 510C243.776 510 244 510.447 244 511C244 511.552 243.776 512 243.5 512Z" fill="black"></path><path d="M247 517C246.448 517 246 516.776 246 516.5C246 516.224 246.448 516 247 516C247.552 516 248 516.224 248 516.5C248 516.776 247.552 517 247 517Z" fill="black"></path><path d="M119.618 513.882H121.502C121.578 512.894 121.837 511.93 122.267 511.037L120.633 510.093C120.44 509.984 120.321 509.78 120.321 509.558C120.32 509.336 120.439 509.131 120.631 509.021C120.823 508.911 121.06 508.912 121.251 509.024L122.88 509.965C123.442 509.148 124.148 508.442 124.965 507.88L124.024 506.25C123.912 506.059 123.911 505.823 124.021 505.63C124.132 505.438 124.336 505.32 124.558 505.32C124.78 505.321 124.984 505.44 125.094 505.633L126.037 507.266C126.93 506.836 127.895 506.577 128.882 506.502V504.617C128.882 504.276 129.159 504 129.5 504C129.841 504 130.118 504.276 130.118 504.617V506.502C131.105 506.577 132.07 506.836 132.963 507.266L133.906 505.633C134.016 505.44 134.22 505.321 134.442 505.32C134.664 505.32 134.868 505.438 134.979 505.63C135.089 505.823 135.088 506.059 134.976 506.25L134.035 507.88C134.852 508.442 135.558 509.148 136.12 509.965L137.749 509.024C137.94 508.912 138.177 508.911 138.369 509.021C138.561 509.131 138.68 509.336 138.679 509.558C138.679 509.78 138.56 509.984 138.367 510.093L136.733 511.037C137.163 511.93 137.422 512.894 137.498 513.882H139.382C139.723 513.882 140 514.159 140 514.5C140 514.841 139.723 515.117 139.382 515.117H137.498C137.422 516.105 137.163 517.07 136.733 517.962L138.367 518.906C138.56 519.016 138.679 519.22 138.679 519.442C138.68 519.663 138.561 519.868 138.369 519.979C138.177 520.089 137.94 520.088 137.749 519.976L136.12 519.035C135.558 519.851 134.852 520.558 134.035 521.119L134.976 522.749C135.088 522.94 135.089 523.177 134.979 523.369C134.868 523.561 134.664 523.68 134.442 523.679C134.22 523.679 134.016 523.559 133.906 523.367L132.963 521.733C132.07 522.163 131.105 522.422 130.118 522.498V524.382C130.118 524.723 129.841 525 129.5 525C129.159 525 128.882 524.723 128.882 524.382V522.498C127.895 522.422 126.93 522.163 126.037 521.733L125.094 523.367C124.984 523.559 124.78 523.679 124.558 523.679C124.336 523.68 124.132 523.561 124.021 523.369C123.911 523.177 123.912 522.94 124.024 522.749L124.965 521.119C124.148 520.558 123.442 519.851 122.88 519.035L121.251 519.976C121.06 520.088 120.823 520.089 120.631 519.979C120.439 519.868 120.32 519.663 120.321 519.442C120.321 519.22 120.44 519.016 120.633 518.906L122.267 517.962C121.837 517.07 121.578 516.105 121.502 515.117H119.618C119.277 515.117 119 514.841 119 514.5C119 514.159 119.277 513.882 119.618 513.882ZM129.5 521.294C133.252 521.294 136.294 518.252 136.294 514.5C136.294 510.747 133.252 507.706 129.5 507.706C125.748 507.706 122.706 510.747 122.706 514.5C122.71 518.25 125.75 521.289 129.5 521.294Z" fill="black"></path><path d="M132 511C133.105 511 134 511.671 134 512.5C134 513.328 133.105 514 132 514C130.895 514 130 513.328 130 512.5C130 511.671 130.895 511 132 511ZM132 513C132.368 513 132.667 512.776 132.667 512.5C132.667 512.224 132.368 512 132 512C131.632 512 131.333 512.224 131.333 512.5C131.333 512.776 131.632 513 132 513Z" fill="black"></path><path d="M127.5 514C128.881 514 130 515.119 130 516.5C130 517.88 128.881 519 127.5 519C126.119 519 125 517.88 125 516.5C125 515.119 126.119 514 127.5 514ZM127.5 517.75C128.19 517.75 128.75 517.19 128.75 516.5C128.75 515.809 128.19 515.25 127.5 515.25C126.81 515.25 126.25 515.809 126.25 516.5C126.25 517.19 126.81 517.75 127.5 517.75Z" fill="black"></path><path d="M128.5 512C128.224 512 128 511.552 128 511C128 510.447 128.224 510 128.5 510C128.776 510 129 510.447 129 511C129 511.552 128.776 512 128.5 512Z" fill="black"></path><path d="M132 517C131.448 517 131 516.776 131 516.5C131 516.224 131.448 516 132 516C132.552 516 133 516.224 133 516.5C133 516.776 132.552 517 132 517Z" fill="black"></path><path d="M155.324 474.176H156.311C156.35 473.659 156.486 473.154 156.711 472.686L155.855 472.192C155.754 472.135 155.692 472.027 155.692 471.911C155.692 471.795 155.754 471.688 155.854 471.63C155.955 471.572 156.079 471.573 156.179 471.632L157.032 472.125C157.327 471.697 157.697 471.327 158.124 471.033L157.632 470.179C157.573 470.079 157.572 469.955 157.63 469.854C157.688 469.754 157.795 469.692 157.911 469.692C158.027 469.692 158.135 469.754 158.192 469.855L158.686 470.711C159.154 470.486 159.659 470.35 160.176 470.311V469.324C160.176 469.145 160.321 469 160.5 469C160.679 469 160.824 469.145 160.824 469.324V470.311C161.341 470.35 161.846 470.486 162.314 470.711L162.808 469.855C162.865 469.754 162.972 469.692 163.089 469.692C163.205 469.692 163.312 469.754 163.37 469.854C163.428 469.955 163.427 470.079 163.368 470.179L162.876 471.033C163.303 471.327 163.673 471.697 163.968 472.125L164.821 471.632C164.921 471.573 165.045 471.572 165.146 471.63C165.246 471.688 165.308 471.795 165.308 471.911C165.308 472.027 165.246 472.135 165.145 472.192L164.289 472.686C164.514 473.154 164.65 473.659 164.689 474.176H165.676C165.855 474.176 166 474.321 166 474.5C166 474.679 165.855 474.824 165.676 474.824H164.689C164.65 475.341 164.514 475.846 164.289 476.314L165.145 476.808C165.246 476.865 165.308 476.973 165.308 477.089C165.308 477.205 165.246 477.312 165.146 477.37C165.045 477.428 164.921 477.427 164.821 477.368L163.968 476.875C163.673 477.303 163.303 477.673 162.876 477.967L163.368 478.821C163.427 478.921 163.428 479.045 163.37 479.146C163.312 479.246 163.205 479.308 163.089 479.308C162.972 479.308 162.865 479.246 162.808 479.145L162.314 478.289C161.846 478.514 161.341 478.65 160.824 478.689V479.676C160.824 479.855 160.679 480 160.5 480C160.321 480 160.176 479.855 160.176 479.676V478.689C159.659 478.65 159.154 478.514 158.686 478.289L158.192 479.145C158.135 479.246 158.027 479.308 157.911 479.308C157.795 479.308 157.688 479.246 157.63 479.146C157.572 479.045 157.573 478.921 157.632 478.821L158.124 477.967C157.697 477.673 157.327 477.303 157.032 476.875L156.179 477.368C156.079 477.427 155.955 477.428 155.854 477.37C155.754 477.312 155.692 477.205 155.692 477.089C155.692 476.973 155.754 476.865 155.855 476.808L156.711 476.314C156.486 475.846 156.35 475.341 156.311 474.824H155.324C155.145 474.824 155 474.679 155 474.5C155 474.321 155.145 474.176 155.324 474.176ZM160.5 478.059C162.465 478.059 164.059 476.465 164.059 474.5C164.059 472.535 162.465 470.941 160.5 470.941C158.535 470.941 156.941 472.535 156.941 474.5C156.943 476.465 158.535 478.057 160.5 478.059Z" fill="black"></path><path d="M162 473C162.552 473 163 473.224 163 473.5C163 473.776 162.552 474 162 474C161.448 474 161 473.776 161 473.5C161 473.224 161.448 473 162 473ZM162 473.667C162.184 473.667 162.333 473.592 162.333 473.5C162.333 473.408 162.184 473.333 162 473.333C161.816 473.333 161.667 473.408 161.667 473.5C161.667 473.592 161.816 473.667 162 473.667Z" fill="black"></path><path d="M159.5 474C160.328 474 161 474.672 161 475.5C161 476.328 160.328 477 159.5 477C158.672 477 158 476.328 158 475.5C158 474.672 158.672 474 159.5 474ZM159.5 476.25C159.914 476.25 160.25 475.914 160.25 475.5C160.25 475.086 159.914 474.75 159.5 474.75C159.086 474.75 158.75 475.086 158.75 475.5C158.75 475.914 159.086 476.25 159.5 476.25Z" fill="black"></path><path d="M161.5 476C161.224 476 161 475.776 161 475.5C161 475.224 161.224 475 161.5 475C161.776 475 162 475.224 162 475.5C162 475.776 161.776 476 161.5 476Z" fill="black"></path><path d="M210.324 475.176H211.311C211.35 474.659 211.486 474.154 211.711 473.686L210.855 473.192C210.754 473.135 210.692 473.027 210.692 472.911C210.692 472.795 210.754 472.688 210.854 472.63C210.955 472.572 211.079 472.573 211.179 472.632L212.032 473.125C212.327 472.697 212.697 472.327 213.124 472.033L212.632 471.179C212.573 471.079 212.572 470.955 212.63 470.854C212.688 470.754 212.795 470.692 212.911 470.692C213.027 470.692 213.135 470.754 213.192 470.855L213.686 471.711C214.154 471.486 214.659 471.35 215.176 471.311V470.324C215.176 470.145 215.321 470 215.5 470C215.679 470 215.824 470.145 215.824 470.324V471.311C216.341 471.35 216.846 471.486 217.314 471.711L217.808 470.855C217.865 470.754 217.972 470.692 218.089 470.692C218.205 470.692 218.312 470.754 218.37 470.854C218.428 470.955 218.427 471.079 218.368 471.179L217.876 472.033C218.303 472.327 218.673 472.697 218.968 473.125L219.821 472.632C219.921 472.573 220.045 472.572 220.146 472.63C220.246 472.688 220.308 472.795 220.308 472.911C220.308 473.027 220.246 473.135 220.145 473.192L219.289 473.686C219.514 474.154 219.65 474.659 219.689 475.176H220.676C220.855 475.176 221 475.321 221 475.5C221 475.679 220.855 475.824 220.676 475.824H219.689C219.65 476.341 219.514 476.846 219.289 477.314L220.145 477.808C220.246 477.865 220.308 477.973 220.308 478.089C220.308 478.205 220.246 478.312 220.146 478.37C220.045 478.428 219.921 478.427 219.821 478.368L218.968 477.875C218.673 478.303 218.303 478.673 217.876 478.967L218.368 479.821C218.427 479.921 218.428 480.045 218.37 480.146C218.312 480.246 218.205 480.308 218.089 480.308C217.972 480.308 217.865 480.246 217.808 480.145L217.314 479.289C216.846 479.514 216.341 479.65 215.824 479.689V480.676C215.824 480.855 215.679 481 215.5 481C215.321 481 215.176 480.855 215.176 480.676V479.689C214.659 479.65 214.154 479.514 213.686 479.289L213.192 480.145C213.135 480.246 213.027 480.308 212.911 480.308C212.795 480.308 212.688 480.246 212.63 480.146C212.572 480.045 212.573 479.921 212.632 479.821L213.124 478.967C212.697 478.673 212.327 478.303 212.032 477.875L211.179 478.368C211.079 478.427 210.955 478.428 210.854 478.37C210.754 478.312 210.692 478.205 210.692 478.089C210.692 477.973 210.754 477.865 210.855 477.808L211.711 477.314C211.486 476.846 211.35 476.341 211.311 475.824H210.324C210.145 475.824 210 475.679 210 475.5C210 475.321 210.145 475.176 210.324 475.176ZM215.5 479.059C217.465 479.059 219.059 477.465 219.059 475.5C219.059 473.535 217.465 471.941 215.5 471.941C213.535 471.941 211.941 473.535 211.941 475.5C211.943 477.465 213.535 479.057 215.5 479.059Z" fill="black"></path><path d="M217 474C217.552 474 218 474.224 218 474.5C218 474.776 217.552 475 217 475C216.448 475 216 474.776 216 474.5C216 474.224 216.448 474 217 474ZM217 474.667C217.184 474.667 217.333 474.592 217.333 474.5C217.333 474.408 217.184 474.333 217 474.333C216.816 474.333 216.667 474.408 216.667 474.5C216.667 474.592 216.816 474.667 217 474.667Z" fill="black"></path><path d="M214.5 475C215.328 475 216 475.672 216 476.5C216 477.328 215.328 478 214.5 478C213.672 478 213 477.328 213 476.5C213 475.672 213.672 475 214.5 475ZM214.5 477.25C214.914 477.25 215.25 476.914 215.25 476.5C215.25 476.086 214.914 475.75 214.5 475.75C214.086 475.75 213.75 476.086 213.75 476.5C213.75 476.914 214.086 477.25 214.5 477.25Z" fill="black"></path><path d="M216.5 477C216.224 477 216 476.776 216 476.5C216 476.224 216.224 476 216.5 476C216.776 476 217 476.224 217 476.5C217 476.776 216.776 477 216.5 477Z" fill="black"></path><path d="M212 190C221.334 195.333 230.666 195.333 240 190" stroke="black" stroke-width="15" stroke-miterlimit="10" stroke-linecap="round" stroke-linejoin="round"></path><path d="M135 190C144.334 195.333 153.666 195.333 163 190" stroke="black" stroke-width="15" stroke-miterlimit="10" stroke-linecap="round" stroke-linejoin="round"></path><path d="M218.048 216H233.666" stroke="black" stroke-width="15" stroke-miterlimit="10" stroke-linecap="round" stroke-linejoin="round"></path><path d="M141.033 216H156.651" stroke="black" stroke-width="15" stroke-miterlimit="10" stroke-linecap="round" stroke-linejoin="round"></path><path d="M265.14 103H111C108.239 103 106 105.239 106 108V157.5C106 160.261 108.239 162.5 111 162.5H265.14C267.901 162.5 270.14 160.261 270.14 157.5V108C270.14 105.239 267.901 103 265.14 103Z" fill="black" stroke="black" stroke-width="15" stroke-miterlimit="10" stroke-linecap="round" stroke-linejoin="round"></path><path d="M173.622 244.568L150.976 252.81C149.735 253.262 148.367 253.214 147.16 252.678L139.325 249.194C138.119 248.657 136.751 248.61 135.51 249.062L63.3902 275.311C61.5058 275.996 60.5342 278.08 61.2199 279.965L71.1778 307.324C71.8635 309.209 73.9474 310.18 75.8317 309.495L147.952 283.245C149.192 282.793 150.21 281.878 150.789 280.691L154.552 272.986C155.131 271.799 156.148 270.884 157.39 270.432L180.036 262.19C184.902 260.419 187.411 255.038 185.639 250.173C183.868 245.306 178.488 242.797 173.622 244.568Z" fill="black" stroke="black" stroke-width="15" stroke-miterlimit="10" stroke-linecap="round" stroke-linejoin="round"></path><path d="M97.5349 282.504L116.456 275.617" stroke="white" stroke-width="15" stroke-miterlimit="10" stroke-linecap="round" stroke-linejoin="round"></path><path d="M239.055 458.394C235.092 455.559 230.485 453.762 225.653 453.168C220.821 452.574 215.917 453.2 211.389 454.992L211.602 454.778L205.149 448.308C207.01 445.212 208.003 441.668 208.02 438.053C208.004 433.562 206.503 429.203 203.754 425.658C201.005 422.113 197.162 419.581 192.825 418.458V402.5H182.695V418.458C179.838 419.178 177.175 420.518 174.892 422.384C172.61 424.251 170.764 426.598 169.487 429.259C168.21 431.92 167.532 434.83 167.501 437.783C167.47 440.736 168.087 443.66 169.308 446.347L160.104 453.732C156.06 452.778 151.859 452.7 147.783 453.504C143.706 454.308 139.848 455.975 136.465 458.394C128.789 463.896 122.354 470.955 117.578 479.114C112.802 487.273 109.792 496.349 108.744 505.751C107.354 518.431 108.951 531.26 113.404 543.209L118.428 556.658C119.134 558.549 120.302 560.233 121.827 561.552C123.351 562.872 125.182 563.786 127.151 564.21C127.995 564.393 128.855 564.487 129.719 564.49C131.297 564.487 132.86 564.171 134.317 563.561C135.774 562.951 137.096 562.058 138.208 560.935L142.903 556.231C146.541 552.567 150.867 549.662 155.631 547.685C160.396 545.707 165.504 544.697 170.66 544.712C173.851 544.709 176.911 543.437 179.167 541.175C181.423 538.912 182.692 535.844 182.695 532.644V482.24C182.672 477.585 181.549 473.001 179.419 468.865C177.288 464.729 174.21 461.158 170.437 458.445L175.669 454.25C178.831 456.691 182.654 458.114 186.638 458.334C190.621 458.553 194.578 457.558 197.986 455.479L202.783 460.289C199.673 463.036 197.178 466.413 195.461 470.196C193.745 473.979 192.847 478.084 192.825 482.24V532.634C192.825 535.836 194.093 538.906 196.349 541.171C198.606 543.436 201.667 544.709 204.86 544.712C210.016 544.699 215.124 545.711 219.887 547.69C224.651 549.669 228.976 552.576 232.612 556.242L237.307 560.945C238.419 562.069 239.741 562.961 241.198 563.571C242.655 564.181 244.217 564.497 245.796 564.5C246.66 564.497 247.52 564.404 248.364 564.221C250.334 563.796 252.165 562.882 253.69 561.561C255.214 560.24 256.382 558.556 257.086 556.663L262.111 543.224C266.564 531.274 268.16 518.442 266.771 505.761C265.725 496.358 262.716 487.28 257.941 479.119C253.166 470.959 246.731 463.897 239.055 458.394ZM172.565 483.764H158.565L152.304 480.625V473.606H142.174V483.764C142.169 484.712 142.428 485.643 142.923 486.451C143.418 487.259 144.129 487.911 144.975 488.335L147.295 489.498L140.654 493.922H132.044V504.08H142.174C143.174 504.079 144.152 503.782 144.985 503.227L158.889 493.922H172.565V495.862L155.105 504.613C154.398 504.974 153.786 505.496 153.317 506.137L138.841 525.493L129.779 530.034L134.308 539.125L144.438 534.046C145.145 533.686 145.757 533.164 146.226 532.523L151.402 525.595L158.853 533.066L166.015 525.884L157.546 517.387L160.702 513.166L172.565 507.219V532.644C172.563 533.151 172.362 533.635 172.005 533.993C171.648 534.351 171.165 534.553 170.66 534.554C164.173 534.536 157.746 535.809 151.752 538.298C145.759 540.787 140.316 544.443 135.741 549.055L131.051 553.763C130.826 553.989 130.548 554.154 130.242 554.243C129.937 554.332 129.614 554.342 129.303 554.271C128.99 554.208 128.699 554.065 128.458 553.856C128.216 553.647 128.033 553.379 127.926 553.077L122.896 539.633C119.005 529.179 117.617 517.954 118.844 506.863C119.731 498.88 122.285 491.173 126.338 484.244C130.392 477.315 135.855 471.32 142.371 466.648C145.228 464.608 148.59 463.397 152.088 463.146C155.586 462.894 159.086 463.613 162.204 465.223C165.322 466.833 167.938 469.273 169.765 472.274C171.593 475.276 172.561 478.724 172.565 482.24V483.764ZM177.63 438.053C177.63 436.044 178.224 434.08 179.337 432.41C180.45 430.739 182.032 429.437 183.883 428.668C185.734 427.899 187.771 427.698 189.736 428.09C191.701 428.482 193.506 429.45 194.923 430.87C196.34 432.291 197.305 434.101 197.696 436.071C198.086 438.042 197.886 440.084 197.119 441.94C196.352 443.796 195.054 445.383 193.388 446.499C191.722 447.615 189.764 448.211 187.76 448.211C185.073 448.211 182.497 447.141 180.597 445.236C178.697 443.331 177.63 440.747 177.63 438.053ZM252.624 539.633L247.594 553.067C247.488 553.369 247.305 553.639 247.063 553.849C246.822 554.059 246.53 554.203 246.217 554.266C245.906 554.336 245.583 554.327 245.277 554.238C244.972 554.149 244.694 553.984 244.469 553.758L239.779 549.05C235.203 544.439 229.761 540.784 223.767 538.295C217.773 535.807 211.347 534.536 204.86 534.554C204.355 534.553 203.871 534.351 203.515 533.993C203.158 533.635 202.957 533.151 202.955 532.644V507.219L214.818 513.166L217.973 517.387L209.505 525.884L216.667 533.066L224.117 525.595L229.294 532.523C229.763 533.164 230.375 533.686 231.082 534.046L241.212 539.125L245.74 530.034L236.679 525.493L222.203 506.112C221.734 505.471 221.122 504.949 220.415 504.588L202.955 495.862V493.922H216.631L230.55 503.227C231.379 503.779 232.351 504.076 233.346 504.08H243.476V493.922H234.866L228.21 489.473L230.53 488.31C231.375 487.89 232.086 487.242 232.583 486.439C233.081 485.636 233.345 484.71 233.346 483.764V473.606H223.216V480.625L216.955 483.764H202.955V482.24C202.954 478.72 203.921 475.267 205.749 472.261C207.577 469.255 210.196 466.812 213.318 465.201C216.44 463.59 219.944 462.872 223.446 463.128C226.948 463.383 230.312 464.601 233.169 466.648C239.687 471.321 245.15 477.318 249.204 484.249C253.258 491.179 255.81 498.888 256.696 506.874C257.914 517.963 256.519 529.183 252.624 539.633Z" fill="black"></path><path d="M352.434 366.806C345.685 333.001 313.973 327.247 313.873 327.201V327.202C313.532 327.102 316.782 327.917 236.532 308.025V305.302H295.607C307.784 305.302 317.69 295.395 317.69 283.219V170.553C318.683 166.364 318.685 162.009 317.69 157.811V116.692C317.69 112.548 314.331 109.191 310.189 109.191C306.045 109.191 302.688 112.548 302.688 116.692V138.219C298.728 135.855 294.205 134.16 289.331 133.321C287.571 125.504 281.079 119.324 272.846 118.243C264.264 117.115 257.76 112.112 253.515 103.374C251.528 99.2833 247.636 96.5963 243.106 96.1843C238.572 95.7743 234.279 97.7113 231.592 101.369C218.698 118.917 182.853 158.276 120.956 158.274C116.247 158.274 113.054 158.051 111.942 158.001C100.568 157.316 90.9514 166.404 90.9514 177.801V195.036C90.9514 222.583 102.379 249.289 122.303 268.305C128.911 274.612 136.2 279.873 143.973 284.068V290.302H85.1684C81.2634 290.302 78.0864 287.125 78.0864 283.221V114.671C78.0864 60.0283 122.639 15.0023 176.457 15.0023C176.631 15.0023 176.805 15.0033 176.978 15.0043C196.26 15.1073 218.523 20.5843 233.694 28.9533C243.309 34.2603 249.248 30.0423 258.743 30.0423C281.918 30.0423 300.49 53.8723 302.716 75.3053C302.73 75.6193 302.763 76.8763 302.767 81.6923C302.772 88.9333 310.95 89.4893 310.274 89.1873C314.418 89.1843 317.772 85.8223 317.769 81.6803C317.768 80.3483 317.779 75.1253 317.654 73.9133C314.638 44.0763 289.187 15.0403 258.744 15.0403C246.854 15.0403 245.001 18.0543 240.942 15.8183C223.739 6.32733 198.663 0.118332 177.059 0.00233224C114.787 -0.400668 63.0834 51.4763 63.0834 114.67V283.22C63.0834 295.397 72.9904 305.303 85.1674 305.303H143.973V308.026L66.9354 327.119C66.8334 327.144 66.7334 327.173 66.6324 327.202L61.0044 328.862C60.8354 328.912 60.6694 328.967 60.5044 329.028C50.4604 332.776 32.8914 342.667 28.0704 366.81C5.2404 481.492 6.20139 476.595 6.14639 476.988C3.39639 496.439 -9.72921 597 13.6938 597H125.172C125.172 597 129.194 589 125.172 585.5C123.194 583.778 116.085 582.5 111.942 582.5H89.4444L86.1938 537C86.1938 532.856 85.8368 529 81.6938 529C77.5508 529 76.1938 532.857 76.1938 537L74.4424 582.5L17.1938 585.5C7.22979 585.5 20.8064 493.788 20.7104 483.321C20.6684 478.215 20.4674 483.192 42.7834 369.743C46.1424 352.92 58.3584 345.893 65.5154 343.172L70.7174 341.638L114.957 330.673C164.17 388.649 161.256 385.577 164.1 388.351C180.526 404.374 203.964 403.243 219.39 385.127L265.715 330.714L309.786 341.637C311.061 342.223 332.999 346.082 337.722 369.74C359.846 482.207 359.838 478.191 359.796 483.315C359.72 493.567 370.02 582.5 359.796 582.5H302.688V537C302.688 532.856 299.752 529 295.608 529C291.464 529 289.331 537.857 289.331 542V582.5H164.1C159.956 582.5 153.281 581.357 153.281 585.5C153.281 589.644 152.664 597 156.807 597H359.796C378.328 597 382.086 603.866 382.257 585.5C382.32 576.923 374.351 478.956 352.434 366.806ZM289.822 148.796C296.086 150.659 300.917 154.787 302.689 159.885V168.479C300.917 173.578 296.086 177.706 289.822 179.568V148.796ZM289.822 196.342V194.957C294.51 194.091 298.863 192.431 302.689 190.146V283.22C302.689 287.125 299.512 290.3 295.608 290.3H236.532V284.503C268.336 267.876 289.822 234.585 289.822 196.342ZM132.662 257.451C115.689 241.25 105.955 218.501 105.955 195.034C106.401 178.702 104.874 176.723 107.48 174.269C108.403 173.399 109.644 172.894 111.041 172.974C164.825 176.212 211.085 152.568 241.627 112.98C249.862 127.44 261.939 131.942 270.893 133.119C273.131 133.413 274.82 135.323 274.82 137.564C274.82 158.315 274.82 175.741 274.82 196.343C274.82 270.979 185.468 307.85 132.662 257.451ZM207.965 375.401C197.514 387.678 182.884 387.645 172.458 375.339L156.807 356.866H223.745L207.965 375.401ZM236.519 341.863H144.098L131.207 326.647L153.281 321.175C156.629 320.346 158.977 317.268 158.977 313.82L158.978 290.614C179.618 297.494 201.415 297.419 221.53 290.828C221.671 314.803 221.208 314.254 221.948 316.369C222.766 318.707 224.715 320.552 227.225 321.174L249.444 326.681L236.519 341.863Z" fill="black"></path></svg> 